<?xml version="1.0" encoding="UTF-8"?>
<svg width="152px" height="99px" viewBox="0 0 152 99" version="1.1" xmlns="http://www.w3.org/2000/svg" xmlns:xlink="http://www.w3.org/1999/xlink">
    <!-- Generator: Sketch 59.1 (86144) - https://sketch.com -->
    <title>编组</title>
    <desc>Created with Sketch.</desc>
    <g id="页面-1" stroke="none" stroke-width="1" fill="none" fill-rule="evenodd">
        <g id="无权限缺省页" transform="translate(-112.000000, -221.000000)">
            <g id="编组" transform="translate(112.000000, 220.000000)">
                <g id="搜索无结果" transform="translate(0.000000, 17.000000)" fill-rule="nonzero">
                    <path d="M139.137977,71.5029173 C139.45828,68.9433107 139.642467,66.3415046 139.642467,63.6954893 C139.642467,29.0330409 111.339933,0.933634709 76.4274185,0.933634709 C41.5143981,0.933634709 13.2118637,29.0330409 13.2118637,63.6954893 C13.2118637,66.3415046 13.3960506,68.9428084 13.7163535,71.5029173 L139.137977,71.5029173 Z" id="Shape" fill="#F6F6F6"></path>
                    <path d="M128.433888,71.5029173 C128.818454,68.9558702 129.021363,66.3495426 129.021363,63.6954893 C129.021363,34.8570878 105.47429,11.4785105 76.4274185,11.4785105 C47.3800406,11.4785105 23.8329675,34.8570878 23.8329675,63.6954893 C23.8329675,66.3490402 24.0358766,68.9553678 24.4204425,71.5029173 L128.433888,71.5029173 Z" id="Shape" fill="#E8E8E8"></path>
                    <path d="M80.8180482,72.7196724 C80.8180482,73.3916677 80.2693503,73.9364275 79.5924973,73.9364275 L10.9646831,73.9364275 C10.5268359,73.9364275 10.1222484,73.7045153 9.90332474,73.32805 C9.68440112,72.9515846 9.68440112,72.4877602 9.90332474,72.1112948 C10.1222484,71.7348295 10.5268359,71.5029173 10.9646831,71.5029173 L79.5924973,71.5029173 C80.2693503,71.5029173 80.8180482,72.0476771 80.8180482,72.7196724 Z M151.89747,72.7196724 C151.89747,73.3916677 151.348772,73.9364275 150.671919,73.9364275 L145.769716,73.9364275 C145.331868,73.9364275 144.927281,73.7045153 144.708357,73.32805 C144.489434,72.9515846 144.489434,72.4877602 144.708357,72.1112948 C144.927281,71.7348295 145.331868,71.5029173 145.769716,71.5029173 L150.671919,71.5029173 C151.348772,71.5029173 151.89747,72.0476771 151.89747,72.7196724 Z M7.43274861,72.6629039 C7.43274861,72.9829426 7.30469467,73.2898734 7.07675719,73.516175 C6.84881971,73.7424765 6.53967014,73.8696114 6.21731787,73.8696114 L1.31056021,73.8696114 C0.639296345,73.8696114 0.0951294668,73.3293501 0.0951294668,72.6629039 L0.0951294668,72.648335 C0.0951294668,71.9818888 0.639296345,71.4416274 1.31056021,71.4416274 L6.21731787,71.4416274 C6.53967014,71.4416274 6.84881971,71.5687623 7.07675719,71.7950639 C7.30469467,72.0213655 7.43274861,72.3282962 7.43274861,72.648335 L7.43274861,72.6629039 L7.43274861,72.6629039 Z M142.093063,72.7196724 C142.093063,73.3916677 141.544365,73.9364275 140.867512,73.9364275 L96.7497038,73.9364275 C96.3118566,73.9364275 95.9072691,73.7045153 95.6883455,73.32805 C95.4694219,72.9515846 95.4694219,72.4877602 95.6883455,72.1112948 C95.9072691,71.7348295 96.3118566,71.5029173 96.7497038,71.5029173 L140.867512,71.5029173 C141.544365,71.5029173 142.093063,72.0476771 142.093063,72.7196724 L142.093063,72.7196724 Z M93.0730511,72.7196724 C93.0730511,73.3916677 92.5243533,73.9364275 91.8475002,73.9364275 L86.9452966,73.9364275 C86.5074494,73.9364275 86.1028619,73.7045153 85.8839383,73.32805 C85.6650147,72.9515846 85.6650147,72.4877602 85.8839383,72.1112948 C86.1028619,71.7348295 86.5074494,71.5029173 86.9452966,71.5029173 L91.8475002,71.5029173 C92.5243533,71.5029173 93.0730511,72.0476771 93.0730511,72.7196724 Z M117.583057,81.8448331 C117.583057,82.0062257 117.518675,82.1610465 117.403728,82.2751683 C117.288781,82.3892902 117.132841,82.4533441 116.970282,82.4532108 L71.6243924,82.4532108 C71.2859659,82.4532108 71.011617,82.1808307 71.011617,81.8448331 C71.011617,81.5088355 71.2859659,81.2364554 71.6243924,81.2364554 L116.970282,81.2364554 C117.132841,81.2363221 117.288781,81.300376 117.403728,81.4144979 C117.518675,81.5286197 117.583057,81.6834405 117.583057,81.8448331 L117.583057,81.8448331 Z M69.7860663,81.8448331 C69.7862005,82.0062257 69.7216835,82.1610465 69.6067367,82.2751683 C69.4917899,82.3892902 69.3358499,82.4533441 69.1732906,82.4532108 L64.271087,82.4532108 C63.9326605,82.4532108 63.6583116,82.1808307 63.6583116,81.8448331 C63.6583116,81.5088355 63.9326605,81.2364554 64.271087,81.2364554 L69.1732906,81.2364554 C69.3358499,81.2363221 69.4917899,81.300376 69.6067367,81.4144979 C69.7216835,81.5286197 69.7862005,81.6834405 69.7860663,81.8448331 L69.7860663,81.8448331 Z M121.25971,81.8448331 C121.259844,82.0062257 121.195327,82.1610465 121.08038,82.2751683 C120.965434,82.3892902 120.809494,82.4533441 120.646934,82.4532108 L119.421383,82.4532108 C119.082957,82.4532108 118.808608,82.1808307 118.808608,81.8448331 C118.808608,81.5088355 119.082957,81.2364554 119.421383,81.2364554 L120.646934,81.2364554 C120.809494,81.2363221 120.965434,81.300376 121.08038,81.4144979 C121.195327,81.5286197 121.259844,81.6834405 121.25971,81.8448331 L121.25971,81.8448331 Z M129.83806,81.8448331 C129.838194,82.0062257 129.773678,82.1610465 129.658731,82.2751683 C129.543784,82.3892902 129.387844,82.4533441 129.225285,82.4532108 L124.323081,82.4532108 C123.984654,82.4532108 123.710306,82.1808307 123.710306,81.8448331 C123.710306,81.5088355 123.984654,81.2364554 124.323081,81.2364554 L129.225285,81.2364554 C129.387844,81.2363221 129.543784,81.300376 129.658731,81.4144979 C129.773678,81.5286197 129.838194,81.6834405 129.83806,81.8448331 L129.83806,81.8448331 Z" id="Shape" fill="#D8D8D8"></path>
                    <path d="M20.885472,51.5590858 C20.885472,53.4310727 22.4139874,54.9486179 24.2995067,54.9486179 C26.185026,54.9486179 27.7135413,53.4310727 27.7135413,51.5590858 C27.7135413,49.687099 26.185026,48.1695538 24.2995067,48.1695538 C22.4139874,48.1695538 20.885472,49.687099 20.885472,51.5590858 L20.885472,51.5590858 Z" id="Shape" fill="#D8D8D8"></path>
                    <path d="M115.972434,10.2949122 C115.972434,12.0237324 117.384051,13.4252181 119.125369,13.4252181 C120.866687,13.4252181 122.278303,12.0237324 122.278303,10.2949122 C122.278303,8.566092 120.866687,7.16460631 119.125369,7.16460631 C117.384051,7.16460631 115.972434,8.566092 115.972434,10.2949122 Z" id="Shape" fill="#FFFFFF"></path>
                    <path d="M131.62528,16.4645939 C131.62528,16.6033213 131.512006,16.715782 131.372276,16.715782 L129.348244,16.715782 C129.208514,16.715782 129.095241,16.6033213 129.095241,16.4645939 C129.095241,16.3258666 129.208514,16.2134058 129.348244,16.2134058 L131.372276,16.2134058 C131.512006,16.2134058 131.62528,16.3258666 131.62528,16.4645939 L131.62528,16.4645939 Z M131.209847,16.9539083 C131.307459,16.896693 131.428495,16.8959129 131.526847,16.951865 C131.625198,17.0078172 131.685721,17.1118861 131.685359,17.2244258 C131.684994,17.3369656 131.623801,17.4406472 131.52509,17.4959722 L130.002513,18.3685996 C129.904901,18.4258149 129.783865,18.4265951 129.685513,18.3706429 C129.587161,18.3146907 129.526639,18.2106218 129.527001,18.0980821 C129.527366,17.9855423 129.588559,17.8818608 129.68727,17.8265357 L131.209847,16.9539083 L131.209847,16.9539083 Z M131.765444,17.6868751 C131.821169,17.5888728 131.9256,17.5281189 132.038953,17.5277565 C132.152306,17.5273974 132.257128,17.5874854 132.313484,17.6851311 C132.369841,17.7827767 132.369055,17.9029445 132.311426,17.9998555 L131.432491,19.5115054 C131.376766,19.6095078 131.272335,19.6702617 131.158981,19.670624 C131.045628,19.6709831 130.940807,19.6108952 130.88445,19.5132495 C130.828093,19.4156038 130.828879,19.295436 130.886508,19.198525 L131.765444,17.6868751 L131.765444,17.6868751 Z M133.143303,19.9812271 C133.143303,20.1199544 133.030029,20.2324151 132.890299,20.2324151 C132.750569,20.2324151 132.637295,20.1199544 132.637295,19.9812271 L132.637295,17.9717224 C132.637295,17.8329951 132.750569,17.7205344 132.890299,17.7205344 C133.030029,17.7205344 133.143303,17.8329951 133.143303,17.9717224 L133.143303,19.9812271 L133.143303,19.9812271 Z M133.533435,17.9335418 C133.475806,17.8366309 133.47502,17.7164631 133.531377,17.6188174 C133.587734,17.5211717 133.692555,17.4610837 133.805908,17.4614429 C133.919261,17.4618052 134.023692,17.5225591 134.079417,17.6205615 L134.958353,19.1322114 C135.015982,19.2291223 135.016768,19.3492901 134.960411,19.4469358 C134.904054,19.5445815 134.799233,19.6046695 134.68588,19.6043104 C134.572527,19.603948 134.468096,19.5431941 134.412371,19.4451917 L133.533435,17.9335418 L133.533435,17.9335418 Z M134.271194,17.3814304 C134.172484,17.3261054 134.11129,17.2224238 134.110925,17.1098841 C134.110564,16.9973443 134.171086,16.8932754 134.269438,16.8373233 C134.367789,16.7813711 134.488826,16.7821513 134.586437,16.8393665 L136.109015,17.7119939 C136.207726,17.767319 136.268919,17.8710005 136.269284,17.9835403 C136.269645,18.09608 136.209123,18.200149 136.110771,18.2561011 C136.01242,18.3120533 135.891383,18.3112731 135.793772,18.2540578 L134.271194,17.3814304 L134.271194,17.3814304 Z M136.685358,15.9622178 C136.685358,16.1009451 136.572084,16.2134058 136.432354,16.2134058 L134.408322,16.2134058 C134.268592,16.2134058 134.155319,16.1009451 134.155319,15.9622178 C134.155319,15.8234904 134.268592,15.7110297 134.408322,15.7110297 L136.432354,15.7110297 C136.572084,15.7110297 136.685358,15.8234904 136.685358,15.9622178 L136.685358,15.9622178 Z M134.519644,15.6266305 C134.422033,15.6838458 134.300996,15.6846259 134.202645,15.6286738 C134.104293,15.5727216 134.043771,15.4686527 134.044132,15.3561129 C134.044497,15.2435732 134.105691,15.1398916 134.204401,15.0845666 L135.726979,14.2119392 C135.82459,14.1547239 135.945627,14.1539437 136.043978,14.2098959 C136.14233,14.2658481 136.202852,14.369917 136.202491,14.4824567 C136.202126,14.5949965 136.140933,14.698678 136.042222,14.7540031 L134.519644,15.6266305 L134.519644,15.6266305 Z M133.963542,14.8936636 C133.907817,14.991666 133.803386,15.0524199 133.690032,15.0527823 C133.576679,15.0531414 133.471858,14.9930534 133.415501,14.8954077 C133.359145,14.797762 133.35993,14.6775943 133.417559,14.5806833 L134.296495,13.0690334 C134.35222,12.971031 134.456651,12.9102771 134.570004,12.9099148 C134.683357,12.9095557 134.788179,12.9696436 134.844535,13.0672893 C134.900892,13.164935 134.900106,13.2851028 134.842477,13.3820138 L133.963542,14.8936636 L133.963542,14.8936636 Z M133.143303,14.9574654 C133.143303,15.0961927 133.030029,15.2086534 132.890299,15.2086534 C132.750569,15.2086534 132.637295,15.0961927 132.637295,14.9574654 L132.637295,12.9479608 C132.637295,12.8092334 132.750569,12.6967728 132.890299,12.6967728 C133.030029,12.6967728 133.143303,12.8092334 133.143303,12.9479608 L133.143303,14.9574654 Z M132.196056,14.6469969 C132.253685,14.7439079 132.254471,14.8640757 132.198114,14.9617214 C132.141758,15.0593671 132.036937,15.1194551 131.923583,15.1190959 C131.81023,15.1187336 131.705799,15.0579797 131.650074,14.9599773 L130.771138,13.4483274 C130.71351,13.3514164 130.712724,13.2312487 130.76908,13.133603 C130.825437,13.0359573 130.930258,12.9758693 131.043611,12.9762284 C131.156965,12.9765908 131.261396,13.0373447 131.317121,13.1353471 L132.196056,14.6469969 Z M131.457791,15.1991084 C131.556502,15.2544334 131.617695,15.358115 131.61806,15.4706547 C131.618422,15.5831945 131.557899,15.6872634 131.459548,15.7432155 C131.361196,15.7991677 131.24016,15.7983875 131.142548,15.7411722 L129.619971,14.8685448 C129.52126,14.8132198 129.460067,14.7095382 129.459702,14.5969985 C129.45934,14.4844587 129.519862,14.3803898 129.618214,14.3244377 C129.716566,14.2684855 129.837602,14.2692657 129.935214,14.326481 L131.457791,15.1991084 L131.457791,15.1991084 Z" id="Shape" fill="#D8D8D8"></path>
                    <path d="M118.357249,20.2324152 L117.457061,20.2324152 L117.457061,19.5954022 C117.457061,19.3939494 117.153456,19.2311795 116.951053,19.2311795 C116.74865,19.2311795 116.445046,19.3944517 116.445046,19.5954022 L116.445046,20.2324152 L115.421898,20.2324152 C115.219495,20.2324152 115.055042,20.7845266 115.055042,20.9859794 C115.055042,21.1869299 115.219495,21.7395437 115.421898,21.7395437 L116.445046,21.7395437 L116.445046,22.509184 C116.445046,22.7101344 116.74865,22.8734067 116.951053,22.8734067 C117.153456,22.8734067 117.457061,22.7101344 117.457061,22.509184 L117.457061,21.7395437 L118.357249,21.7395437 C118.559652,21.7395437 118.724105,21.1869299 118.724105,20.9859794 C118.724105,20.7845266 118.559652,20.2324152 118.357249,20.2324152 L118.357249,20.2324152 Z M31.5252981,61.9296371 L30.4237191,61.9296371 L30.4237191,60.8781638 C30.4237191,60.6767109 30.1201144,60.513941 29.9177113,60.513941 C29.7153082,60.513941 29.4117035,60.6772133 29.4117035,60.8781638 L29.4117035,61.9296371 L28.5904528,61.9296371 C28.3880497,61.9296371 28.2235972,62.2305604 28.2235972,62.4320132 C28.2235972,62.6329637 28.3880497,62.9343894 28.5904528,62.9343894 L29.4117035,62.9343894 L29.4117035,63.7919455 C29.4117035,63.992896 29.7153082,64.1561682 29.9177113,64.1561682 C30.1201144,64.1561682 30.4237191,63.992896 30.4237191,63.7919455 L30.4237191,62.9343894 L31.5252981,62.9343894 C31.7277012,62.9343894 31.8921538,62.6329637 31.8921538,62.4320132 C31.8921538,62.2305604 31.7282072,61.9296371 31.5252981,61.9296371 L31.5252981,61.9296371 Z" id="Shape" fill="#D8D8D8"></path>
                </g>
                <g id="编组-3" transform="translate(53.000000, 0.000000)" stroke="#D8D8D8" stroke-width="0.5">
                    <rect id="矩形" fill="#FFFFFF" x="3.11153315" y="12.6426903" width="39.8125" height="54.6923077"></rect>
                    <path d="M42.0559392,8.08499802 C43.7127935,8.08499802 45.0559392,9.42814377 45.0559392,11.084998 L45.0559392,75.7433831 C45.0559392,77.4002374 43.7127935,78.7433831 42.0559392,78.7433831 L3.04903315,78.7433831 C1.3921789,78.7433831 0.0490331492,77.4002374 0.0490331492,75.7433831 L0.0490331492,11.084998 C0.0490331492,9.42814377 1.3921789,8.08499802 3.04903315,8.08499802 L42.0559392,8.08499802 Z M23.5,68.8512092 C21.5376346,68.8512092 19.9468232,70.432951 19.9468232,72.3841285 C19.9468232,74.3353059 21.5376346,75.9170477 23.5,75.9170477 C25.4623654,75.9170477 27.0531768,74.3353059 27.0531768,72.3841285 C27.0531768,70.432951 25.4623654,68.8512092 23.5,68.8512092 Z M39.1334129,12.7566268 L6.55606479,12.7566268 C4.95838391,12.7566268 3.65240391,14.0055467 3.56115748,15.580354 L3.55606479,15.7566268 L3.55606479,62.3124504 C3.55606479,63.9101313 4.80498476,65.2161113 6.379792,65.3073577 L6.55606479,65.3124504 L39.1334129,65.3124504 C40.7310937,65.3124504 42.0370737,64.0635304 42.1283202,62.4887232 L42.1334129,62.3124504 L42.1334129,15.7566268 C42.1334129,14.0997725 40.7902671,12.7566268 39.1334129,12.7566268 Z" id="形状结合" fill="#FFFFFF"></path>
                    <path d="M23.026243,28.3404017 C26.2207913,28.3404017 28.8245507,30.7548464 28.9439281,33.7762502 L28.9482044,33.9930726 L26.5794199,33.9930726 L26.5741623,33.8121539 C26.472953,32.0751945 24.9231963,30.6956812 23.0262431,30.6956812 C21.0638777,30.6956812 19.4730663,32.1719736 19.4730663,33.9930726 L19.4730663,33.9930726 L17.1042817,33.9930726 C17.1042817,30.8711887 19.7556341,28.3404017 23.026243,28.3404017 Z" id="形状结合" fill="#F6F6F6"></path>
                    <path d="M30.7382597,33.9930726 C31.8428292,33.9930726 32.7382597,34.8885031 32.7382597,35.9930726 L32.7382597,49.4221409 C32.7382597,50.5267104 31.8428292,51.4221409 30.7382597,51.4221409 L14.8404696,51.4221409 C13.7359001,51.4221409 12.8404696,50.5267104 12.8404696,49.4221409 L12.8404696,35.9930726 C12.8404696,34.8885031 13.7359001,33.9930726 14.8404696,33.9930726 L30.7382597,33.9930726 Z M22.7893646,37.2904639 C21.2194724,37.2904639 19.9468232,38.5856658 19.9468232,40.1833783 C19.9468232,41.4220325 20.7117354,42.4788659 21.7870536,42.8913181 L21.7870536,42.8913181 L20.886472,47.6536937 L24.9811562,47.6536937 L23.7795311,42.8959439 C24.8612301,42.4868119 25.6319061,41.4266905 25.6319061,40.1833783 C25.6319061,38.5856658 24.3592569,37.2904639 22.7893646,37.2904639 Z" id="形状结合" fill="#F6F6F6"></path>
                    <path d="M40.2388699,1.7173913 C42.996038,1.7173913 45.2311644,3.81142304 45.2311644,6.39454209 C45.2311644,8.97766114 42.996038,11.0716929 40.2388699,11.0716929 C40.1878485,11.0716929 40.1370059,11.0709758 40.0863529,11.0695518 L38.6501171,13.725353 C40.0712468,14.7846788 40.5333495,15.7475146 40.0364252,16.6138603 C39.5395009,17.4802059 38.5429382,17.526703 37.0467372,16.7533514 C36.0929409,18.0628428 35.6160427,18.7175885 35.6160427,18.7175885 C34.9918028,19.4731963 33.8396853,19.362438 33.0639129,18.8291624 C32.2881404,18.2958868 32.0492101,17.2568036 32.6403154,16.0693877 C32.6403154,16.0693877 33.9452559,13.8967869 36.5551368,9.55158512 C35.7423937,8.71928637 35.2465753,7.61116138 35.2465753,6.39454209 C35.2465753,3.81142304 37.4817017,1.7173913 40.2388699,1.7173913 Z M40.354864,4.64061055 C39.3817459,4.64061055 38.7705479,5.38867405 38.7705479,6.19589875 C38.7705479,7.00312345 39.3817459,7.65750837 40.354864,7.65750837 C41.3279822,7.65750837 41.9569713,7.00312345 41.9569713,6.19589875 C41.9569713,5.38867405 41.3279822,4.64061055 40.354864,4.64061055 Z" id="形状结合" fill="#F6F6F6" transform="translate(38.770548, 10.487049) rotate(11.000000) translate(-38.770548, -10.487049) "></path>
                </g>
            </g>
        </g>
    </g>
</svg>