<?xml version="1.0" encoding="UTF-8"?>
<svg width="14px" height="14px" viewBox="0 0 14 14" version="1.1" xmlns="http://www.w3.org/2000/svg" xmlns:xlink="http://www.w3.org/1999/xlink">
    <!-- Generator: Sketch 59.1 (86144) - https://sketch.com -->
    <title>shanchu</title>
    <desc>Created with Sketch.</desc>
    <g id="页面-1" stroke="none" stroke-width="1" fill="none" fill-rule="evenodd" fill-opacity="0.6">
        <g id="患者-找医生-搜索" transform="translate(-348.000000, -135.000000)" fill="#252A36" fill-rule="nonzero">
            <g id="shanchu" transform="translate(348.000000, 135.000000)">
                <path d="M7.11223382,0 C5.58585386,0 4.34379958,1.134 4.2914238,2.555 L0.729870564,2.555 C0.333311065,2.555 0.0115741127,2.856 0.0115741127,3.227 C0.0115741127,3.598 0.333311065,3.899 0.729870564,3.899 L1.52298956,3.899 L1.52298956,11.431 C1.52298956,12.845 2.54805846,14 3.8125595,14 L10.262263,14 C11.5267641,14 12.551833,12.852 12.551833,11.431 L12.551833,3.906 L13.2701294,3.906 C13.6666889,3.906 13.9884259,3.605 13.9884259,3.234 C13.9884259,2.863 13.6666889,2.562 13.2701294,2.562 L9.92556159,2.562 C9.88066806,1.134 8.63861378,0 7.11223382,0 Z M5.63822965,2.555 C5.69060543,1.827 6.32659708,1.26 7.11223382,1.26 C7.89787056,1.26 8.53386221,1.827 8.57875574,2.555 L5.63822965,2.555 Z M3.8125595,12.74 C3.36362422,12.74 2.86979541,12.201 2.86979541,11.431 L2.86979541,3.906 L11.2050271,3.906 L11.2050271,11.438 C11.2050271,12.208 10.7111983,12.747 10.262263,12.747 L3.8125595,12.747 L3.8125595,12.74 Z" id="Shape"></path>
                <path d="M4.77777035,11.123 C5.10698956,11.123 5.37635073,10.815 5.37635073,10.43 L5.37635073,6.475 C5.37635073,6.09 5.10698956,5.782 4.77777035,5.782 C4.44855115,5.782 4.17918998,6.09 4.17918998,6.475 L4.17918998,10.43 C4.17918998,10.815 4.44106889,11.123 4.77777035,11.123 Z M6.94762422,11.123 C7.27684342,11.123 7.54620459,10.815 7.54620459,10.43 L7.54620459,6.475 C7.54620459,6.09 7.27684342,5.782 6.94762422,5.782 C6.61840501,5.782 6.34904384,6.09 6.34904384,6.475 L6.34904384,10.43 C6.34904384,10.815 6.61840501,11.123 6.94762422,11.123 L6.94762422,11.123 Z M9.2297119,11.123 C9.55893111,11.123 9.82829228,10.815 9.82829228,10.43 L9.82829228,6.475 C9.82829228,6.09 9.55893111,5.782 9.2297119,5.782 C8.90049269,5.782 8.63113152,6.09 8.63113152,6.475 L8.63113152,10.43 C8.63113152,10.815 8.89301044,11.123 9.2297119,11.123 Z" id="Shape"></path>
            </g>
        </g>
    </g>
</svg>