<?xml version="1.0" encoding="UTF-8"?>
<svg width="112px" height="159px" viewBox="0 0 112 159" version="1.1" xmlns="http://www.w3.org/2000/svg" xmlns:xlink="http://www.w3.org/1999/xlink">
    <!-- Generator: Sketch 59.1 (86144) - https://sketch.com -->
    <title>编组</title>
    <desc>Created with Sketch.</desc>
    <defs>
        <polygon id="path-1" points="6.66991674e-05 0.222363202 111.840625 0.222363202 111.840625 86.9999813 6.66991674e-05 86.9999813"></polygon>
    </defs>
    <g id="页面-1" stroke="none" stroke-width="1" fill="none" fill-rule="evenodd">
        <g id="登录" transform="translate(-213.000000, -368.000000)">
            <g id="编组" transform="translate(213.000000, 368.000000)">
                <path d="M65.4612457,60 C65.4612457,60 64.8257759,68.3237861 65.9287478,69.5269822 C67.0319577,70.7304241 67.7835298,71.4527351 70.9994211,72.5905347 C71.086022,83.9628765 60.2179492,90.4910841 55.4261118,92.6292525 C48.7825853,90.9972919 39.0730553,82.784154 38.8432298,72.4247194 C38.73141,67.3729677 44.6620402,66.6724032 44.6620402,66.6724032 L65.4612457,60 Z" id="Fill-1" fill="#EAC3BD"></path>
                <path d="M43,60.8050598 L43.6059063,68.9666399 C43.6059063,68.9666399 54.5423795,69.9656057 64.9396925,61.0304662 C75.3370055,52.0953267 43,60.8050598 43,60.8050598" id="Fill-3" fill="#F69797"></path>
                <g transform="translate(0.000000, 72.000000)">
                    <mask id="mask-2" fill="white">
                        <use xlink:href="#path-1"></use>
                    </mask>
                    <g id="Clip-6"></g>
                    <path d="M107.139321,27.2967143 C106.22097,22.7937312 106.335885,19.5610458 101.400354,14.134543 C96.4648226,8.70804017 70.1326751,0.735076685 70.1326751,0.735076685 C70.1326751,0.735076685 71.25802,5.02691376 64.7481718,11.7955626 C58.2388095,18.5642115 55.4723367,20.028793 55.4723367,20.028793 C50.7738651,16.68163 47.8075539,14.3810526 46.573403,13.1270606 C44.9152169,11.4422163 41.1965883,6.86613287 41.1965883,6.86613287 C41.1965883,6.86613287 40.1361111,5.24734635 39.5007965,0.222363202 C4.92024989,11.5367621 3.90617614,14.1931947 1.80733015,27.2128913 C-0.291515835,40.2323435 -3.84441822,74.6005205 13.2969267,81.638234 C30.4380286,88.6759475 53.2505579,87.4752986 70.0420547,85.3640823 C76.8346967,84.5099671 89.2991722,81.638234 96.1078156,77.6089451 C105.957843,71.779795 113.484692,64.1500121 111.485699,52.3541806 C109.644866,41.4921329 107.61599,29.6342284 107.139321,27.2967143 Z" id="Fill-5" fill="#4479B6" mask="url(#mask-2)"></path>
                </g>
                <polygon id="Fill-7" fill="#F39D97" points="75.0489835 36.9654392 78.6932205 36 82 43.1810764 78.6256784 47.7067425 72.9569497 50 71 48.1896883"></polygon>
                <polygon id="Fill-9" fill="#F8C3C3" points="62.1206082 16 50.983935 16.3264867 41.9918467 31.0205399 33.3299361 41.7142943 33 45.0611416 54.861047 48 71.6076007 45.1428828 74 34.3673872"></polygon>
                <path d="M59.0014995,32.8701156 C59.0014995,32.8701156 58.7669196,30.9324555 64.1658442,31.0018188 C69.5647689,31.0711821 72,31.4515522 72,31.4515522 C72,31.4515522 65.8676844,33.9773902 61.730374,33.9773902 C61.730374,33.9773902 59.0894968,34.2542794 59.0014995,32.8701156" id="Fill-11" fill="#361F49"></path>
                <path d="M46.9974527,32.6757275 C46.9974527,32.6757275 47.2788824,30.9251282 41.9255536,31.0024906 C36.5724619,31.0798529 34,32.6510979 34,32.6510979 C34,32.6510979 38.730959,33.9769937 42.8331466,33.9769937 C42.8331466,33.9769937 46.8931316,34.2813908 46.9974527,32.6757275" id="Fill-13" fill="#361F49"></path>
                <path d="M61.0221311,40.7517691 C60.9699519,40.6843633 61.0168283,40.5753777 61.0921274,40.5880324 C61.6408567,40.6802311 63.1833225,40.9224789 64.1299706,40.9033676 C66.2591334,40.8604965 67.5428247,39.7045255 68.7677615,39.0307257 C69.4626347,38.6485011 68.768822,41.9578425 64.32893,41.9996806 C62.2447346,42.01905 61.3322363,41.1525884 61.0221311,40.7517691" id="Fill-15" fill="#521E3E"></path>
                <path d="M46.9778689,40.7517691 C47.0300481,40.6843633 46.9831717,40.5753777 46.9078726,40.5880324 C46.3591433,40.6802311 44.8166775,40.9224789 43.8700294,40.9033676 C41.7408666,40.8604965 40.4571753,39.7045255 39.2322385,39.0307257 C38.5373653,38.6485011 39.231178,41.9578425 43.67107,41.9996806 C45.7552654,42.01905 46.6677637,41.1525884 46.9778689,40.7517691" id="Fill-17" fill="#521E3E"></path>
                <path d="M62.6735717,16.4670037 C62.6735717,16.4670037 54.4919034,14.0733295 50.2014394,20.63367 C45.8651309,27.2639293 43.1028173,40.0850639 34.5565759,42.9178769 C34.5565759,42.9178769 34.0763001,56.764241 43.4850974,62.0434739 C43.798247,65.834787 44.0835017,69.6059831 43.9241374,71.9569701 C43.9241374,71.9569701 44.1291036,73.2716878 38.1035826,74.5113348 C32.0780616,75.7507365 18.2395689,82 18.2395689,82 C18.2395689,82 15.5391089,75.183536 16.0688677,65.1640577 C16.5986265,55.1443341 19.1035802,39.6424905 23.464145,31.2164235 C27.8242248,22.7901112 27.5906361,13.9702913 35.5326516,6.88273891 C43.4746672,-0.204813502 52.5843837,-0.441065249 58.5019639,0.267689993 C64.4195441,0.976445234 71.8470824,3.40348421 77.5250099,15.9753646 C85.320517,33.2354805 78.2747738,35.7312116 86.9175554,48.4770301 C99.3486945,66.8092335 85.0650976,80.2370664 85.0650976,80.2370664 C85.0650976,80.2370664 81.5224571,79.1053641 75.1677773,76.4101806 C68.8130976,73.7149971 66.1085141,73.2895968 64.9505157,71.3608209 C63.7925174,69.4320449 64.4736358,61.85408 64.4736358,61.85408 C64.4736358,61.85408 70.4860584,58.3466125 72.0758198,48.8761803 C72.0758198,48.8761803 77.2288398,49.986539 79.0388489,43.4247264 C79.8201461,40.5911774 78.5956853,37.8672905 77.9422192,36.8337197 C76.374531,34.3534444 75.5578195,39.0080699 73.7148217,37.9897096 C70.4581636,36.190222 61.6174501,29.2726825 62.6735717,16.4670037" id="Fill-19" fill="#2C343E"></path>
                <path d="M73.6345727,37 L75,37.2935597 L72.7722105,44.0491985 C72.7722105,44.0491985 72.7088051,58.5652086 62.4545836,63.1258048 C52.9103548,67.3702404 42.3034716,63.8013184 38.7105005,58.4411552 C35.1172837,53.0809919 33.9093867,45.7811754 34.0052321,43.9241406 C34.0052321,43.9241406 41.9230394,45.4936426 46.5526145,45.471544 C48.7378881,45.4612481 50.6978022,43.2496314 52.6744278,43.2496314 C54.6512992,43.2496314 57.27869,44.8796534 58.9557375,45.041626 C60.6141075,45.2015897 60.613616,45.204352 60.613616,45.204352 C60.613616,45.204352 66.0976891,45.5955974 71.4542143,43.9989744 L73.6345727,37 Z" id="Fill-21" fill="#F2F8F9"></path>
                <path d="M39.9369825,74.9299236 C39.6873723,73.1696271 39.4040674,72.3369927 39.0870678,72.4320202 C3.32203991,83.1533692 3.97429296,85.6657518 1.85183031,98.3350954 C-0.298850685,111.172638 -3.93924982,145.060618 13.6251843,152 C13.6251843,152 2.62382495,138.828476 5.04088269,114.409554 C7.45794042,89.9906324 6.40039986,85.3115258 39.9369825,74.9299236 Z" id="Fill-23" fill="#356DA8"></path>
                <polygon id="Fill-25" fill="#356DA8" points="20 142 22.58895 141.611124 23 103"></polygon>
                <polygon id="Fill-27" fill="#356DA8" points="92.860575 137 95 136.234074 88 101"></polygon>
            </g>
        </g>
    </g>
</svg>