<?xml version="1.0" encoding="UTF-8"?>
<svg width="18px" height="16px" viewBox="0 0 18 16" version="1.1" xmlns="http://www.w3.org/2000/svg" xmlns:xlink="http://www.w3.org/1999/xlink">
    <!-- Generator: Sketch 59.1 (86144) - https://sketch.com -->
    <title>daojishi</title>
    <desc>Created with Sketch.</desc>
    <g id="页面-1" stroke="none" stroke-width="1" fill="none" fill-rule="evenodd">
        <g id="医生-加入随访申请" transform="translate(-222.000000, -111.000000)" fill="#FF4500" fill-rule="nonzero">
            <g id="daojishi" transform="translate(222.000000, 111.000000)">
                <path d="M8.98164439,15.9974278 C4.57513193,15.9974278 0.98483976,12.4832842 0.98483976,8.16907538 C0.98483976,3.83763675 4.57513193,0.32349308 8.98164439,0.32349308 C13.3889261,0.32349308 16.9792183,3.83763674 16.9792183,8.17057364 C16.9792183,12.4840333 13.3889261,15.9981769 8.98164439,15.9981769 L8.98164439,15.9974278 Z M8.98164439,1.58726634 C5.27749678,1.58726634 2.25802029,4.54406127 2.25802029,8.1698245 C2.25802029,11.7955877 5.27749678,14.7516335 8.98164439,14.7516335 C12.685792,14.7516335 15.7060378,11.7955877 15.7060378,8.1698245 C15.7060378,4.52533316 12.685792,1.58726634 8.98241369,1.58726634 L8.98164439,1.58726634 Z M11.8503394,9.09948817 L9.22858756,9.09948817 C8.56391808,9.09948817 8.01310403,8.56011844 8.01310403,7.90912913 L8.01310403,4.07885488 C8.01310403,3.72526804 8.29774258,3.44659368 8.65931047,3.44659368 C9.02010906,3.44659368 9.30474761,3.72526804 9.30474761,4.07885488 L9.30474761,7.83496579 L11.8688024,7.83496579 C12.2303703,7.83496579 12.5150089,8.11364016 12.5150089,8.46722699 C12.5034673,8.8174702 12.2101838,9.09645356 11.8503394,9.09948817 L11.8503394,9.09948817 Z M0.98483976,3.78070327 C0.727630643,3.78095559 0.481038077,3.68085745 0.300168666,3.50277803 C-0.079092966,3.13046308 -0.079092966,2.53565812 0.300168666,2.1820713 L2.22032492,0.28603686 C2.60035585,-0.0862780844 3.20809762,-0.0862780844 3.56889621,0.28603686 C3.94892714,0.657602672 3.94892714,1.25240763 3.56889621,1.60599447 L1.64950924,3.50277803 C1.47639458,3.68025036 1.23620333,3.78095477 0.98483976,3.78145241 L0.98483976,3.78070327 Z M16.978449,3.78070327 C16.7217733,3.78055524 16.4758108,3.680488 16.2953165,3.50277803 L14.3766988,1.62472258 C13.9966679,1.25240763 13.9966679,0.657602672 14.3766988,0.304015853 C14.7567298,-0.0675499583 15.3644715,-0.0675499583 15.7252701,0.304015853 L17.6631201,2.16334319 C18.0423818,2.53565814 18.0423818,3.1304631 17.6631201,3.48404992 C17.4894357,3.6744501 17.2399732,3.78280983 16.978449,3.78146501 L16.978449,3.78070327 Z" id="形状"></path>
            </g>
        </g>
    </g>
</svg>