<?xml version="1.0" encoding="UTF-8"?>
<svg width="115px" height="157px" viewBox="0 0 115 157" version="1.1" xmlns="http://www.w3.org/2000/svg" xmlns:xlink="http://www.w3.org/1999/xlink">
    <!-- Generator: Sketch 59.1 (86144) - https://sketch.com -->
    <title>编组</title>
    <desc>Created with Sketch.</desc>
    <defs>
        <linearGradient x1="111.791656%" y1="25.904137%" x2="8.09384351%" y2="85.0152974%" id="linearGradient-1">
            <stop stop-color="#F4E8E6" offset="0%"></stop>
            <stop stop-color="#ECCBCB" offset="100%"></stop>
        </linearGradient>
        <path d="M0,35.3041921 C0,35.3041921 19.2796716,40.6364502 29.9611897,17.8067485 C29.9611897,17.8067485 38.7778793,17.042135 38.9016657,8.91342331 C38.9016657,8.91342331 38.9388103,0.136932515 30.3346034,0.136269762 C29.0139828,0.136269762 27.4909655,0.342773006 25.731931,0.819607362 C25.731931,0.819607362 26.7743966,26.353002 0,35.3041921 Z" id="path-2"></path>
        <polygon id="path-4" points="0.02419435 0.06146875 59.0490413 0.06146875 59.0490413 39.4574688 0.02419435 39.4574688"></polygon>
        <path d="M0.632384507,0.5 C5.35705117,31.0851212 30.5377164,20.1461809 30.5377164,20.1461809 C4.405272,28.3694839 0.632384507,0.5 0.632384507,0.5 Z" id="path-6"></path>
        <linearGradient x1="-3.79662103%" y1="29.4730446%" x2="89.1216656%" y2="73.7491697%" id="linearGradient-8">
            <stop stop-color="#ECCBCB" offset="0%"></stop>
            <stop stop-color="#F3E5E4" offset="100%"></stop>
        </linearGradient>
        <path d="M28.8615328,0.245920792 C28.8615328,0.245920792 23.5114599,9.09819802 15.9858394,13.7502178 L15.9858394,13.7502178 C8.46,18.4022376 0.181751825,20.808297 0.181751825,20.808297 L0.181751825,20.808297 L0.611824818,21.877802 C0.611824818,21.877802 9.40839416,19.4270891 16.4645255,14.8362772 L16.4645255,14.8362772 C24.940292,9.32146535 28.9408029,2.03990099 29.7470803,0.756712871 L29.7470803,0.756712871 C30.1129927,0.174475248 29.9645255,0.0154651924 29.6932117,0.0154651924 L29.6932117,0.0154651924 C29.3664964,0.0154651924 28.8615328,0.245920792 28.8615328,0.245920792" id="path-9"></path>
        <linearGradient x1="100%" y1="29.4317014%" x2="0%" y2="76.9414281%" id="linearGradient-11">
            <stop stop-color="#D5E6F1" offset="0%"></stop>
            <stop stop-color="#F4F8F9" offset="100%"></stop>
        </linearGradient>
        <path d="M0.183043478,1.43835507 C0.183043478,1.43835507 7.07673913,15.557058 8.00826087,28.5206739 L9.82956522,30.9222754 C9.82956522,30.9222754 9.82956522,16.1740657 1.30108696,0.0905289855 L0.183043478,1.43835507 Z" id="path-12"></path>
        <linearGradient x1="50%" y1="0%" x2="50%" y2="100%" id="linearGradient-14">
            <stop stop-color="#F4F8F9" offset="0%"></stop>
            <stop stop-color="#D5E6F1" offset="100%"></stop>
        </linearGradient>
    </defs>
    <g id="页面-1" stroke="none" stroke-width="1" fill="none" fill-rule="evenodd">
        <g id="登录" transform="translate(-219.000000, -168.000000)">
            <g id="编组" transform="translate(219.000000, 168.000000)">
                <path d="M95.8596195,90.5373416 C92.5139211,87.0117482 84.985823,83.1149233 81.5471577,82.4652684 C78.1084925,81.8158344 76.0390956,82.5890122 76.0390956,82.5890122 L73.1949753,79.0521492 L70.539002,79 C70.238188,79.1630767 69.8574668,79.3223968 69.3742607,79.4556424 C67.4961098,79.9742615 66.5735249,82.0352586 66.5735249,82.0352586 C62.2481334,90.8230572 56.6125749,96.2366123 55.0567089,96.9563151 C54.1978727,97.3536211 52.155125,99.0933813 50.4494054,100.548697 L41.705912,108.783144 C41.705912,108.783144 37.473915,86.6686538 36.683146,82.8742858 C35.892377,79.0799178 35.7030102,79.931614 32.9930277,80.8923963 C30.2830452,81.8536204 27.2454654,83.2952357 27.2454654,83.2952357 C23.1115412,83.4203053 15.0316187,85.9837907 8.89359572,93.299701 C2.75535141,100.615169 0,115.758435 0,138 C0,160.241565 10.749833,156.957892 32.9930277,155.789176 C55.2362224,154.62046 77.5830933,150.093423 90.2230379,146.382214 C102.862761,142.671005 108.68827,140.85301 112.777482,134.915075 C116.866915,128.977362 111.752296,123.845416 109.057144,114.196272 C106.36177,104.547129 99.2055393,94.0629351 95.8596195,90.5373416 Z" id="Fill-43" fill="#F4F8F9"></path>
                <path d="M78,51 C78,51 76.8863444,56.5142663 74.7806368,58.1744606 C72.7397546,59.7831652 70.7196612,60.0343513 69,59.9965458 L72.6883414,52.5368046 L78,51 Z" id="Fill-11" fill="#2C363F"></path>
                <path d="M45,93.8947084 C45,93.8947084 41.420963,84.6803435 41.1491347,83.0628035 C40.8775132,81.4454871 41.3756927,76.2500371 42.1457004,75.5639299 C42.9161215,74.8778228 41.3756927,73.6523121 39.6541829,74.0935407 C37.9324664,74.5345456 34.4723763,75.4258353 35.6051966,79.8388555 C36.7380169,84.2518758 39.9970348,99.9537856 39.9970348,99.9537856 C39.9970348,99.9537856 43.2784902,95.0710198 45,93.8947084 Z" id="Fill-57" fill="#6ACAE5"></path>
                <g transform="translate(27.000000, 10.000000)">
                    <path d="M35.7040219,56.8098878 L35.5179397,68.6339122 L21.5738301,80.6440829 L16.3679123,80.923522 C16.3679123,80.923522 13.8028712,74.4582293 13.6691726,72.049522 C13.535474,69.6403756 13.4464877,59.6923024 13.4464877,59.6923024 L35.7040219,56.8098878 Z" id="Fill-1" fill="#F2CCCD"></path>
                    <path d="M14.3997793,75.8309077 C16.7566012,74.9500052 18.6874301,73.7087927 22.6039233,70.5030366 C26.7724712,67.091378 28.1173479,60.3574024 28.1173479,60.3574024 L27.7988822,57.8334512 L13.4464877,58.775986 C13.4464877,58.775986 13.4192347,69.8351813 13.5527142,72.2441081 C13.60181,73.1267666 13.7438215,73.9646552 14.3997793,75.8309077 Z" id="Fill-3" fill="#EDB1B3"></path>
                    <path d="M12.1166904,0.202873171 L7.87822466,3.23499512 L1.13148493,19.5210439 L1.29959452,21.7317512 L0.149128767,28.9139707 L0.687868493,34.2869707 C0.687868493,34.2869707 1.7708274,42.0484829 2.08907397,43.3585317 C2.40710137,44.668361 6.29159452,55.2679463 10.454663,56.9491902 C14.6177315,58.6304341 16.4980603,62.8000683 26.1673205,60.1099463 C35.8368,57.4200439 46.8489644,32.2009463 46.8489644,32.2009463 L47.7920877,10.163678 L35.0089644,1.24401951 L12.1166904,0.202873171 Z" id="Fill-5" fill="#ECCBCB"></path>
                </g>
                <g transform="translate(44.000000, 35.000000)">
                    <mask id="mask-3" fill="white">
                        <use xlink:href="#path-2"></use>
                    </mask>
                    <use id="Clip-8" fill="url(#linearGradient-1)" xlink:href="#path-2"></use>
                </g>
                <g transform="translate(24.000000, 0.000000)">
                    <g transform="translate(3.103122, 0.000000)">
                        <mask id="mask-5" fill="white">
                            <use xlink:href="#path-4"></use>
                        </mask>
                        <g id="Clip-10"></g>
                        <path d="M51.340089,11.8205938 C51.340089,11.8205938 53.0851518,6.80334375 54.8104876,7.0100625 C56.2022378,7.17675 57.0713336,10.5614688 52.4257384,13.94575 C52.4257384,13.94575 53.3699741,15.3660938 54.8135908,16.0234375 C56.2569858,16.681 59.1036569,19.1765 59.048244,24.4367813 C58.9926094,29.6970625 56.8827082,35.8410938 54.8282198,39.4574688 C54.8282198,39.4574688 53.0618784,36.808625 50.6567372,37.002 C48.4397782,37.1805 47.8428706,37.4860938 46.5103013,37.4734063 C44.454483,37.4535 42.2692202,36.6198438 41.6601217,32.6617813 C41.0051413,28.4046875 41.2817625,20.5767188 41.2817625,20.5767188 C41.2817625,20.5767188 41.3803974,18.78275 40.2823355,18.8234375 C38.8766213,18.8757188 30.361433,20.1020313 10.3571572,12.0290625 C10.2880019,12.0012813 8.72159027,10.9040313 1.09278657,31.5 C1.09278657,31.5 -2.46117469,13.7070938 3.39352985,12.3711875 C3.39352985,12.3711875 4.0930622,12.1150313 7.27863856,12.1909375 C7.61554894,12.1990313 7.93406225,11.9875 8.00831552,11.6630938 C8.07015631,11.3929375 8.00942378,11.2089688 7.72526647,10.9683438 C7.01442989,10.3672188 2.76913738,8.5588125 2.81834403,7.19446875 C2.87575179,5.59825 14.676038,-0.86034375 28.1225305,0.17259375 C41.5692445,1.20575 50.6866602,4.18840625 51.340089,11.8205938" id="Fill-9" fill="#2C363F" mask="url(#mask-5)"></path>
                    </g>
                    <path d="M11.3083749,25.7915438 C11.3083749,25.7915438 14.3981978,25.6147938 17.1313833,28.1251688 C17.2643742,28.2472313 17.3676639,28.4036375 17.404458,28.5788563 C17.4498966,28.7945438 17.4230767,29.0894188 17.1340431,29.4077 C16.5626254,30.0366063 15.7083802,29.4682938 15.7083802,29.4682938 C15.7083802,29.4682938 13.5951541,27.8051375 11.2775653,27.7736375 C9.54557998,27.7500125 8.30499615,27.8626688 8.31896019,26.8962313 C8.3335892,25.8737938 9.31550565,25.8370438 11.3083749,25.7915438" id="Fill-13" fill="#2C363F"></path>
                    <path d="M36.5418102,31.1680031 C36.7333171,31.2721281 36.8587719,31.3493469 37.1573366,31.3370969 C37.4847159,31.3239719 37.7070325,31.1664719 37.9699112,30.7427531 C38.5681488,29.7787219 36.5480164,27.8204719 32.7435889,27.8399406 C28.6122253,27.8613781 27.2131606,29.9364406 27.9499304,30.8678781 C28.7438863,31.8712844 30.3085247,30.0867219 32.7553364,30.1048781 C33.7636294,30.1125344 34.9137794,30.2842531 36.5418102,31.1680031" id="Fill-15" fill="#2C363F"></path>
                    <path d="M32.6650577,42.5855062 L32.6650577,42.5855062 C31.8201219,42.5391312 31.1733427,41.8257875 31.2198895,40.9921313 L31.4756754,36.4395063 C31.5224439,35.60585 32.2452496,34.9673188 33.0901854,35.013475 C33.9351212,35.0596313 34.5819005,35.772975 34.5353537,36.60685 L34.2795677,41.1592563 C34.2327993,41.9931313 33.5102151,42.6316625 32.6650577,42.5855062" id="Fill-17" fill="#0F2C26"></path>
                    <path d="M12.3036348,40.4614656 L12.3036348,40.4614656 C11.4584773,40.4153094 10.8119197,39.7017469 10.8584666,38.8680906 L11.1140308,34.3154656 C11.1607993,33.4818094 11.8836051,32.8432781 12.7285408,32.8894344 C13.5734766,32.9358094 14.2202559,33.6489344 14.1737091,34.4828094 L13.9181448,39.0352156 C13.8711547,39.8690906 13.1485706,40.5076219 12.3036348,40.4614656" id="Fill-19" fill="#0F2C26"></path>
                    <path d="M21.2058489,38.9263656 L20.2651597,48.3446469 L18.4693386,48.3179594 C17.8509308,48.3087719 17.2396157,48.1309281 16.7411214,47.7697719 C16.2204618,47.3922094 15.7667411,46.7987406 16.0353828,45.9344594 C16.6050273,44.1019906 21.2058489,38.9263656 21.2058489,38.9263656" id="Fill-21" fill="#EDABAF"></path>
                    <path d="M16.2572117,44.1847 C16.0645964,45.33445 13.1815745,45.8213875 9.81756862,45.2725438 C6.45378441,44.7234813 3.88306951,43.34645 4.07568472,42.1967 C4.26829994,41.04695 7.15154355,40.5600125 10.5153278,41.1088563 C13.879112,41.6579188 16.4498269,43.03495 16.2572117,44.1847" id="Fill-23" fill="#F7B4BD"></path>
                    <path d="M17.1132965,44.1105656 C16.8517477,44.3678156 17.0809354,44.7545656 17.4357995,44.6661906 C18.0167483,44.5211594 19.2212029,44.2569094 20.5043439,44.3549094 C22.3648871,44.4970969 23.5686768,45.5241281 23.5686768,45.5241281 C23.5686768,45.5241281 24.0082119,45.7050344 24.1006406,45.2953156 C24.1861981,44.9146906 22.6310907,43.7109094 20.7446142,43.5361281 C18.6750535,43.3440656 17.4193973,43.7944719 17.1132965,44.1105656 C17.1108583,44.1134094 17.116178,44.1079406 17.1132965,44.1105656" id="Fill-25" fill="#9C9EA0"></path>
                    <path d="M52.7091643,48.923944 L52.7091643,48.923944 C53.2683912,48.9261063 53.8200819,48.786325 54.3021741,48.5067625 C55.3233229,47.9150438 56.8420794,46.621575 56.8604765,44.157575 C56.8837499,40.9662313 54.8101995,39.6926688 53.1048123,39.4599188 C52.6905455,39.4037 52.3374546,39.7512938 52.3680425,40.1629813 C52.5622093,42.7807625 52.521647,45.545325 52.2676343,48.4439813 C52.2450259,48.700575 52.4478371,48.922825 52.7091643,48.923944" id="Fill-27" fill="#EFC4C5"></path>
                    <path d="M4.19581987,31.4999781 C4.19581987,31.4999781 -0.222582506,34.1597594 0.0832966597,38.2046656 C0.389175825,42.2495719 3.71261945,44.2065094 3.71261945,44.2065094 C3.39720927,39.8011031 3.57674704,35.5722281 4.19581987,31.4999781" id="Fill-29" fill="#EFA8AD"></path>
                </g>
                <g transform="translate(28.000000, 49.000000)">
                    <mask id="mask-7" fill="white">
                        <use xlink:href="#path-6"></use>
                    </mask>
                    <g id="Clip-32"></g>
                    <path d="M0.524818645,0.431452543 C5.24948531,31.0165738 29.7958748,20.1461809 30.5377164,20.1461809 C4.405272,28.3694839 0.524818645,0.431452543 0.524818645,0.431452543 Z" id="Fill-31" fill="url(#linearGradient-8)" mask="url(#mask-7)"></path>
                </g>
                <g transform="translate(28.000000, 41.000000)">
                    <path d="M35.486398,6.07129968 C35.3990613,7.2402835 32.5786392,7.98432233 29.1868804,7.73322848 C25.7951216,7.48191456 23.1166492,6.33053592 23.2037648,5.16133204 C23.2913226,3.99234822 26.1117447,3.24830939 29.5032824,3.49940324 C32.8952623,3.75071715 35.5739558,4.90231586 35.486398,6.07129968" id="Fill-33" fill="#F7B4BD"></path>
                    <path d="M29.962209,9.41139806 L23.0358573,8.62202589 C21.3545709,8.43034951 20.1477769,6.91872492 20.3403598,5.24535275 C20.5329427,3.57242071 22.0517166,2.37130744 23.7327819,2.56298382 L30.6593548,3.35235599 C32.3404201,3.5438123 33.5472141,5.05565696 33.3546312,6.72880906 C33.1622693,8.40196117 31.6434955,9.60285437 29.962209,9.41139806" id="Fill-35" fill="#FFFFFF" opacity="0.6"></path>
                    <path d="M9.73817286,6.9421178 L2.81182111,6.15274563 C1.13053467,5.96128932 -0.0762592965,4.44966472 0.116323618,2.77629256 C0.308906533,1.10336052 1.82790151,-0.0977527508 3.50874573,0.0937035599 L10.4353186,0.883295793 C12.1163839,1.0747521 13.3231779,2.5863767 13.130595,4.25974887 C12.9382332,5.93268091 11.4194593,7.13379417 9.73817286,6.9421178" id="Fill-37" fill="#FFFFFF" opacity="0.6"></path>
                    <path d="M16.6468583,18.5563378 C18.4782754,18.5591806 21.2774714,18.227323 23.2267377,13.4486175 C23.2267377,13.4486175 24.3136925,11.4112583 14.4523859,11.2259638 C14.4523859,11.2259638 10.9794814,11.0648764 10.9845613,12.5919055 C10.9894312,14.1750511 12.8042653,18.5505981 16.6468583,18.5563378" id="Fill-39" fill="#162C27"></path>
                    <path d="M23.1910734,13.5324401 C22.4870734,13.5066926 21.646209,13.4934887 20.6344302,13.4985502 C15.8503698,13.5220971 13.803596,15.6793916 13.0171236,16.9311197 C13.9172442,17.8624337 15.121606,18.5540971 16.646792,18.5563159 C18.4673749,18.5591586 21.2433548,18.2295016 23.1910734,13.5324401" id="Fill-41" fill="#EE91B3"></path>
                    <polygon id="Fill-45" fill="#C2F5FA" points="11.4202111 56.1981269 13.705912 67.7831438 20.8022469 61.1681216 20.0791457 58.5283922 13.8357889 54.7925735"></polygon>
                    <path d="M20.2190834,59.4296893 L20.3632458,61.5649296 C20.3632458,61.5649296 25.8663397,56.4874239 27.4202693,55.7706731 C28.974199,55.0539223 34.541194,49.4567961 38.8618171,40.7052621 C38.8618171,40.7052621 39.783606,38.6524984 41.6596864,38.1360065 C43.5353246,37.6197346 43.8837869,36.7146084 43.8837869,36.7146084 L41.3048121,36.5951133 L37.3527719,40.2167184 L20.2190834,59.4296893 Z" id="Fill-47" fill="#4BBDD6"></path>
                    <path d="M12.7433282,50.7892464 C12.7241825,51.9433886 13.3986809,55.1753791 13.8942667,56.1671043 C14.1389786,55.8505545 14.3995353,55.5204882 14.6688945,55.1902038 C14.1744091,52.6545355 14.0012181,50.4498057 14.6259819,49.0390664 C14.2358071,49.1713981 12.7604932,49.7414929 12.7433282,50.7892464" id="Fill-59" fill="#4CB8D5"></path>
                    <path d="M38.5041347,32.0193735 C40.1000744,32.1384285 42.6781648,33.3881761 42.3102452,36.1105968 C42.1999136,36.927477 41.6369789,37.6120984 40.8701849,37.92349 C40.0494412,38.256888 38.8634312,38.9454706 37.9204161,40.3270369 C32.1962151,48.7141437 26.1441146,56.0264544 21.5791698,59.0816129 C17.093602,62.0830757 15.9728181,63.0592828 14.7702251,58.0098977 C13.5654211,52.9510498 12.9810392,48.5675806 16.100396,47.8602926 C31.6956322,44.3234123 35.4009186,31.7878654 38.5041347,32.0193735" id="Fill-49" fill="#69CAE3"></path>
                </g>
                <g transform="translate(45.000000, 94.000000)">
                    <mask id="mask-10" fill="white">
                        <use xlink:href="#path-9"></use>
                    </mask>
                    <g id="Clip-52"></g>
                    <path d="M28.8615328,0.245920792 C28.8615328,0.245920792 23.5114599,9.09819802 15.9858394,13.7502178 L15.9858394,13.7502178 C8.46,18.4022376 0.181751825,20.808297 0.181751825,20.808297 L0.181751825,20.808297 L0.611824818,21.877802 C0.611824818,21.877802 9.40839416,19.4270891 16.4645255,14.8362772 L16.4645255,14.8362772 C24.940292,9.32146535 28.9408029,2.03990099 29.7470803,0.756712871 L29.7470803,0.756712871 C30.1129927,0.174475248 29.9645255,0.0154651924 29.6932117,0.0154651924 L29.6932117,0.0154651924 C29.3664964,0.0154651924 28.8615328,0.245920792 28.8615328,0.245920792" id="Fill-51" fill="url(#linearGradient-11)" mask="url(#mask-10)"></path>
                    <text id="FFFFFF" mask="url(#mask-10)" font-family="PingFang-SC-Bold, PingFang SC" font-size="22" font-weight="bold" line-spacing="22" fill="#FFFFFF">
                        <tspan x="57.1532847" y="85.7938812">F</tspan>
                        <tspan x="57.1532847" y="107.793881">F</tspan>
                        <tspan x="57.1532847" y="129.793881">F</tspan>
                        <tspan x="57.1532847" y="151.793881">F</tspan>
                        <tspan x="57.1532847" y="173.793881">F</tspan>
                        <tspan x="57.1532847" y="195.793881">F</tspan>
                    </text>
                </g>
                <g transform="translate(9.000000, 75.000000)">
                    <path d="M57.150677,35.3969128 C55.6203469,35.3969128 54.3798421,34.1677754 54.3798421,32.6517374 C54.3798421,31.1356995 55.6203469,29.9065621 57.150677,29.9065621 C58.6810071,29.9065621 59.921732,31.1356995 59.921732,32.6517374 C59.921732,34.1677754 58.6810071,35.3969128 57.150677,35.3969128 M67.4048129,8.38859052 C65.409046,0.589737441 53.1738874,0.00830616114 53.1738874,0.00830616114 L53.0801398,2.74258104 C53.0801398,2.74258104 64.4480233,2.97432512 64.8692272,11.1309318 C65.2616026,18.7364104 59.4501333,26.3320787 58.6625217,27.3244578 C58.1816803,27.1906 57.6748712,27.1175668 57.150677,27.1175668 C54.0653696,27.1175668 51.564334,29.5954626 51.564334,32.6517374 C51.564334,35.7082303 54.0653696,38.1859081 57.150677,38.1859081 C60.2359845,38.1859081 62.7370201,35.7082303 62.7370201,32.6517374 C62.7370201,31.146164 62.1292013,29.7816427 61.1444117,28.7840313 C65.9746123,21.5535289 69.292088,15.7645052 67.4048129,8.38859052" id="Fill-53" fill="#F1BB5A"></path>
                    <path d="M39.3355353,21.5528967 C39.3355353,22.7135791 38.385956,23.6545081 37.2141113,23.6545081 C36.0427068,23.6545081 35.0931275,22.7135791 35.0931275,21.5528967 C35.0931275,20.3924322 36.0427068,19.4515033 37.2141113,19.4515033 C38.385956,19.4515033 39.3355353,20.3924322 39.3355353,21.5528967" id="Fill-55" fill="#DAEFF4"></path>
                    <path d="M16.945446,32.9615507 C16.945446,32.9615507 14.446611,39.0935033 13.2080867,41.385219 C11.9693424,43.6767166 11.0404492,46.2211052 9.49207379,45.9505555 C7.94369838,45.6800057 8.58144595,44.3446976 8.58144595,44.3446976 C8.58144595,44.3446976 9.23701877,44.5249915 9.47380841,44.3085081 C9.71081812,44.0920246 11.2332259,42.0893896 15.4756337,32.4333137 L16.945446,32.9615507 Z" id="Fill-61" fill="#60C6E3"></path>
                    <path d="M16.945446,32.9615507 C16.945446,32.9615507 14.446611,39.0935033 13.2080867,41.385219 C11.9693424,43.6767166 11.0404492,46.2211052 9.49207379,45.9505555 C7.94369838,45.6800057 8.58144595,44.3446976 8.58144595,44.3446976 C8.58144595,44.3446976 9.23701877,44.5249915 9.47380841,44.3085081 C9.71081812,44.0920246 11.2332259,42.0893896 15.4756337,32.4333137 L16.945446,32.9615507 Z" id="Fill-63" fill="#60C6E3"></path>
                    <path d="M5.89438964,27.8027706 C5.89438964,27.8027706 2.77585243,33.6493488 1.80668738,36.0651118 C0.83752233,38.4810929 -0.525998706,40.8253488 0.68149644,41.8231782 C1.88877152,42.8207896 2.50781359,41.4767611 2.50781359,41.4767611 C2.50781359,41.4767611 1.94554822,41.0967706 1.96007249,40.7778227 C1.9743767,40.4588749 2.5370822,38.0145526 7.24976828,28.5749602 L5.89438964,27.8027706 Z" id="Fill-65" fill="#60C6E3"></path>
                    <polygon id="Fill-67" fill="#3F7BB5" points="6.31475728 26.7165602 5.73312621 27.8656882 7.31429126 28.6145507 7.88866019 27.4682569"></polygon>
                    <polygon id="Fill-69" fill="#3E7AB0" points="15.8769217 31.3019972 15.3804557 32.4046891 17.0208181 33.0578455 17.4737113 31.9106796"></polygon>
                    <path d="M31.4441965,0.692419003 C31.4441965,0.692419003 22.4168335,2.05550256 18.5220337,8.97342275 C14.6272338,15.8913429 13.712079,19.9576123 13.712079,19.9576123 C13.712079,19.9576123 10.4324544,19.8845791 8.4347068,21.9319062 C6.64580065,23.7655839 5.80757411,26.7187403 5.80757411,26.7187403 L8.24699159,27.9271668 C8.24699159,27.9271668 9.55835728,24.4065318 10.7335029,23.6051289 C11.8311858,22.8562664 13.4691275,22.7204464 14.4930887,23.0694796 C15.5236518,23.4211289 16.9672764,24.5717829 16.8790304,26.2539441 C16.8057489,27.6494227 15.3308751,31.2265223 15.3308751,31.2265223 L17.9109139,32.1561147 C17.9109139,32.1561147 19.6269786,29.5694322 19.7407521,26.6723043 C19.8554058,23.7466171 17.7234188,21.3742379 16.3158848,20.8627877 C16.3158848,20.8627877 18.3963767,13.693546 21.0543184,10.313309 C23.7223832,6.92042749 25.4693097,5.13380886 31.4465919,3.73920222 L31.4441965,0.692419003 Z" id="Fill-71" fill="#F1BF5D"></path>
                </g>
                <g transform="translate(41.000000, 109.000000)">
                    <mask id="mask-13" fill="white">
                        <use xlink:href="#path-12"></use>
                    </mask>
                    <g id="Clip-74"></g>
                    <path d="M0.219342772,1.50457655 C0.219342772,1.50457655 7.07673913,15.557058 8.00826087,28.5206739 L9.82956522,30.9222754 C9.82956522,30.9222754 9.82956522,16.6657784 1.426156,0.303630102 L0.219342772,1.50457655 Z" id="Fill-73" fill="url(#linearGradient-14)" mask="url(#mask-13)"></path>
                </g>
            </g>
        </g>
    </g>
</svg>