<?xml version="1.0" encoding="UTF-8"?>
<svg width="15px" height="16px" viewBox="0 0 15 16" version="1.1" xmlns="http://www.w3.org/2000/svg" xmlns:xlink="http://www.w3.org/1999/xlink">
    <!-- Generator: Sketch 59.1 (86144) - https://sketch.com -->
    <title>yijianfankui</title>
    <desc>Created with Sketch.</desc>
    <g id="页面-1" stroke="none" stroke-width="1" fill="none" fill-rule="evenodd">
        <g id="医生-我的" transform="translate(-17.000000, -332.000000)" fill="#253A52" fill-rule="nonzero">
            <g id="yijianfankui" transform="translate(17.000000, 332.000000)">
                <path d="M13.153238,4.65614525 C12.8550452,4.65614525 12.592997,4.91536313 12.592997,5.2103352 L12.592997,14.2114525 C12.592997,14.5064246 12.3490211,14.7656425 12.032756,14.7656425 L1.69540663,14.7656425 C1.39721386,14.7656425 1.13516566,14.5243017 1.13516566,14.2114525 L1.13516566,2.93994413 C1.13516566,2.64497207 1.37914157,2.38575419 1.69540663,2.38575419 L9.62914157,2.38575419 C9.9815512,2.38575419 10.2707078,2.09972067 10.2707078,1.75111732 C10.2707078,1.42932961 10.0086596,1.17011173 9.68335843,1.17011173 L1.8309488,1.17011173 C0.827936747,1.17011173 0.0146837349,1.98351955 0.0146837349,2.96675978 L0.0146837349,14.202514 C0.0146837349,15.1946927 0.836972892,15.999162 1.8309488,15.999162 L11.90625,15.999162 C12.909262,15.999162 13.7225151,15.1857542 13.7225151,14.202514 L13.7225151,5.22821229 C13.7315512,4.91536313 13.469503,4.65614525 13.153238,4.65614525 Z" id="路径"></path>
                <path d="M6.4122741,5.72877095 L2.77070783,5.72877095 C2.50865964,5.72877095 2.30986446,5.93435754 2.30986446,6.18463687 L2.30986446,6.39916201 C2.30986446,6.65837989 2.51769578,6.85502793 2.77070783,6.85502793 L6.4122741,6.85502793 C6.65625,6.85502793 6.87311747,6.64944134 6.87311747,6.39916201 L6.87311747,6.18463687 C6.87311747,5.93435754 6.66528614,5.72877095 6.4122741,5.72877095 Z M2.30082831,9.61703911 L2.30082831,9.83156425 C2.30082831,10.0907821 2.50865964,10.2874302 2.76167169,10.2874302 L9.80986446,10.2874302 C10.0719127,10.2874302 10.2707078,10.0818436 10.2887801,9.83156425 L10.2887801,9.61703911 C10.2887801,9.35782123 10.0809488,9.16117318 9.82793675,9.16117318 L2.76167169,9.16117318 C2.50865964,9.15223464 2.30082831,9.35782123 2.30082831,9.61703911 Z M14.842997,0.303072626 L14.6893825,0.151117318 C14.5086596,-0.0276536313 14.2104669,-0.0276536313 14.029744,0.151117318 L8.18335843,5.96117318 C8.00263554,6.13994413 8.00263554,6.4349162 8.18335843,6.61368715 L8.33697289,6.76564246 C8.51769578,6.94441341 8.81588855,6.94441341 8.99661145,6.76564246 L14.8249247,0.955586592 C15.0056476,0.758938547 15.0056476,0.472905028 14.842997,0.303072626 Z" id="形状"></path>
            </g>
        </g>
    </g>
</svg>