<?xml version="1.0" encoding="UTF-8"?>
<svg width="26px" height="20px" viewBox="0 0 26 20" version="1.1" xmlns="http://www.w3.org/2000/svg" xmlns:xlink="http://www.w3.org/1999/xlink">
    <!-- Generator: Sketch 59.1 (86144) - https://sketch.com -->
    <title>jiaru</title>
    <desc>Created with Sketch.</desc>
    <g id="页面-1" stroke="none" stroke-width="1" fill="none" fill-rule="evenodd">
        <g id="医生-消息" transform="translate(-32.000000, -492.000000)" fill="#0F66EA" fill-rule="nonzero">
            <g id="jiaru" transform="translate(32.000000, 492.000000)">
                <path d="M12.8031935,20 C12.0744162,20 11.3558051,19.8478452 10.7252051,19.5599445 L10.6981918,19.5477125 L10.571549,19.5477125 C10.5390169,19.5477125 10.5204271,19.5378671 10.4672719,19.5059445 C10.449844,19.4958008 10.4315447,19.4847621 10.4112121,19.4737235 L10.3618331,19.4230052 L10.3417909,19.4128616 C10.2479707,19.3648284 10.1544409,19.3045632 10.0609111,19.2442979 C9.96011961,19.1795576 9.85903771,19.1148172 9.7579558,19.0629056 L9.72774741,19.0479884 C9.70712438,19.0300879 9.67633506,19.0089055 9.63392714,19.0011486 C9.6083662,18.9778779 9.56566781,18.9480436 9.50147499,18.9480436 L9.484628,18.9480436 C9.47010474,18.9352149 9.45064357,18.9211928 9.42566356,18.9113475 L9.3074442,18.789922 C9.10557085,18.6326954 8.96585707,18.4888942 8.77240721,18.290198 L1.62376698,10.9473873 C0.487466928,9.82890046 -0.0850400772,8.27184987 0.0102325243,6.55995943 C0.106376522,4.88357176 0.81743545,3.28415651 2.01269995,2.05677462 C3.27360959,0.761370586 4.98299758,0.0181989051 6.70197092,0.0181989051 C8.23127045,0.0181989051 9.64002691,0.600265525 10.6688548,1.65669705 L13.0050668,4.05626743 L15.2913188,1.65580202 C16.330313,0.588630159 17.7466215,0 19.2776639,0 C21.0030274,0 22.7225817,0.749735221 23.9948195,2.05677462 C25.190084,3.28445485 25.9011429,4.88357176 25.9972869,6.56025777 C26.0446328,8.2217283 25.4709639,9.78206065 24.3817192,10.9494757 L17.8174951,17.7415457 C16.8194565,18.6729716 15.828389,19.3326074 14.875663,19.6974805 L14.8518449,19.6974805 C14.7673195,19.6974805 14.7074836,19.7228396 14.6682708,19.7398452 L14.5117101,19.7476021 C14.4649452,19.7476021 14.4170184,19.7640109 14.3708344,19.7798231 C14.3496304,19.7869833 14.3284265,19.7956352 14.3121604,19.7977236 L14.2947325,19.7977236 L14.2828234,19.8019004 C13.7867088,19.9331712 13.2891418,20 12.8031935,20 L12.8031935,20 Z M9.30599187,17.1919984 L9.41985425,17.3089488 L9.43989635,17.3193908 C9.51716011,17.3590704 9.5531778,17.3960649 9.59849038,17.4426063 L9.98742335,17.8420872 C10.090829,17.9482972 10.1980107,18.0583857 10.3153586,18.1186509 C10.4974803,18.2618554 10.6999346,18.365977 10.8954177,18.4668168 C11.331987,18.6908722 11.8574386,18.8185629 12.6030629,18.8824082 L12.9725347,18.9140325 L8.72564231,14.4451572 C8.63298389,14.3499858 8.58244294,14.2261736 8.58244294,14.0949028 C8.58244294,13.963632 8.63269343,13.8398198 8.72448045,13.7458418 C8.815977,13.6518639 8.93681054,13.5999523 9.06432479,13.5999523 C9.19183903,13.5999523 9.31267257,13.6515656 9.40416913,13.7458418 L14.1297483,18.7004192 L14.2090453,18.6771484 C14.5515038,18.5769053 14.9055809,18.473082 15.2611104,18.2642421 L15.4159284,18.1732476 L10.3307533,12.7968137 C10.1387557,12.5996092 10.1387557,12.2929129 10.3293009,12.0972001 C10.4207975,12.0032221 10.541631,11.9516088 10.6691453,11.9516088 C10.7966595,11.9516088 10.9174931,12.0032221 11.0089896,12.0972001 L16.2120936,17.5941644 L16.3111423,17.4924296 C16.5016875,17.2970151 16.610031,17.0992139 16.689328,16.954816 C16.7169222,16.9046944 16.7413213,16.8596447 16.7663013,16.8211585 C16.802319,16.7871474 16.8252658,16.7591032 16.8339797,16.7036114 C16.8714497,16.65886 16.8865539,16.6206722 16.8865539,16.5428047 L16.8865539,16.4348047 L11.8864851,11.1982935 C11.7885984,11.097752 11.737186,10.9637961 11.7444476,10.8298402 C11.7502569,10.7191551 11.7964409,10.6230887 11.8742856,10.5592434 C11.9771103,10.4548235 12.0979438,10.4029118 12.2257486,10.4029118 C12.3532628,10.4029118 12.4740963,10.4545251 12.5655929,10.5485031 L17.1491345,15.3091576 L17.1299638,14.9362292 C17.0814561,13.9913779 16.6989134,13.0969465 16.0232912,12.3492996 L10.4756954,6.65184898 L12.1778218,4.90356072 L9.84277165,2.5051837 C9.04195896,1.65997882 7.93092939,1.19366917 6.71533232,1.19366917 C5.31006145,1.19366917 3.89694801,1.81720542 2.83820218,2.90496293 C1.8108266,3.96020108 1.24209564,5.23680952 1.19300702,6.59695392 C1.14333746,7.97261214 1.58949208,9.21670122 2.44926922,10.0994973 L6.58317063,14.3452123 L9.30599187,17.1919984 Z M14.9732593,6.06948402 C15.1245917,6.06948402 15.2712767,6.13452273 15.3863009,6.25266644 C15.5013252,6.37081015 15.5646466,6.52147322 15.5646466,6.67690977 C15.5646466,6.83204797 15.5013252,6.98271104 15.3863009,7.10085475 L13.9752207,8.54990528 L16.8453079,11.4978296 C17.7913532,12.4698301 18.3124478,13.7646374 18.3124478,15.1438758 L18.3124478,15.4869699 L23.5579598,10.0991989 C24.4183178,9.21550785 24.8644724,7.98902099 24.814222,6.64618047 C24.7648429,5.32332891 24.1653226,3.9778033 23.1690268,2.95448782 C22.1233519,1.88045408 20.7227285,1.26437639 19.3261716,1.26437639 C18.1288738,1.26437639 17.0233631,1.72263079 16.2132555,2.55500694 L12.1757885,6.70167221 L13.1497185,7.70171696 L14.5605082,6.25266644 C14.6755325,6.13452273 14.8222174,6.06948402 14.9732593,6.06948402 L14.9732593,6.06948402 Z" id="形状"></path>
            </g>
        </g>
    </g>
</svg>