<?xml version="1.0" encoding="UTF-8"?>
<svg width="14px" height="16px" viewBox="0 0 14 16" version="1.1" xmlns="http://www.w3.org/2000/svg" xmlns:xlink="http://www.w3.org/1999/xlink">
    <!-- Generator: Sketch 59.1 (86144) - https://sketch.com -->
    <title>introduce</title>
    <desc>Created with Sketch.</desc>
    <g id="页面-1" stroke="none" stroke-width="1" fill="none" fill-rule="evenodd">
        <g id="医生-我的" transform="translate(-17.000000, -228.000000)" fill="#253A52" fill-rule="nonzero">
            <g id="introduce" transform="translate(17.000000, 228.000000)">
                <path d="M12.6603996,0.0172062831 L1.33283655,0.0172062831 C0.982725394,0.0168388243 0.646823596,0.151151825 0.399123043,0.390559795 C0.151422489,0.629967766 0.0122434347,0.954830938 0.0122434347,1.29358899 L0.0122434347,14.6512036 C0.0122434347,15.3573758 0.602997351,15.9275855 1.33140268,15.9275855 L12.6618335,15.9275855 C13.390385,15.9275855 13.9809927,15.3561299 13.9809927,14.6512036 L13.9809927,1.29358899 C13.9786318,0.589611116 13.3894048,0.0194914626 12.6618335,0.0172062831 L12.6603996,0.0172062831 Z M6.57649454,1.29358899 L6.57649454,5.01729459 L6.41733511,4.86329633 L5.80650703,4.27227599 C5.63141671,4.10366464 5.34861408,4.10304556 5.17273705,4.27088862 L4.35829961,5.04781677 L4.35829961,1.29358899 L6.57649454,1.29358899 Z M3.03914036,1.29358899 L3.03914036,6.21182161 C3.03914036,6.56143927 3.33021572,6.8444631 3.69155064,6.8444631 C4.11884352,6.8444631 4.52892999,6.68075324 4.83291016,6.38940519 L5.48388656,5.76508793 L6.12339203,6.38385571 C6.41446739,6.66687953 6.80734742,6.83197677 7.22030161,6.8444631 L7.24611125,6.8444631 C7.4195073,6.84483427 7.58589112,6.7782558 7.70836628,6.65949178 C7.83084145,6.54072776 7.89928582,6.37959361 7.89852154,6.21182161 L7.89852154,1.29358899 L12.6618335,1.29358899 L12.6618335,12.3675898 L1.33427043,12.3675898 L1.33427043,1.29358899 L3.03770649,1.29358899 L3.03914036,1.29358899 Z M1.33140268,14.6512036 L1.33140268,13.6439717 L12.6589658,13.6439717 L12.6589658,14.6512036 L1.33140268,14.6512036 L1.33140268,14.6512036 Z" id="形状"></path>
            </g>
        </g>
    </g>
</svg>