<?xml version="1.0" encoding="UTF-8"?>
<svg width="22px" height="24px" viewBox="0 0 22 24" version="1.1" xmlns="http://www.w3.org/2000/svg" xmlns:xlink="http://www.w3.org/1999/xlink">
    <!-- Generator: Sketch 59.1 (86144) - https://sketch.com -->
    <title>jiaru</title>
    <desc>Created with Sketch.</desc>
    <g id="页面-1" stroke="none" stroke-width="1" fill="none" fill-rule="evenodd">
        <g id="患者-消息" transform="translate(-34.000000, -173.000000)" fill="#0F66EA" fill-rule="nonzero">
            <g id="jiaru" transform="translate(34.000000, 173.000000)">
                <g id="xitongxiaoxi">
                    <path d="M21.6235834,18.7916789 L19.5881048,15.6929388 L19.5881048,9.21886903 C19.5881048,7.86873718 19.0216401,6.44594199 17.9917042,5.2106651 C16.9455062,3.95429241 15.473782,2.97216525 13.8529882,2.44242602 C13.7174703,2.40492236 13.5819524,2.36976267 13.4464345,2.33460299 L13.4464345,2.11895693 C13.4464345,0.949311456 12.3514501,0.0023439789 10.9989816,0 C9.64651319,0.0023439789 8.55152873,0.949311456 8.55152873,2.11895693 L8.55152873,2.31819514 C8.43498335,2.34632288 8.32114833,2.37679461 8.20731331,2.40961031 C6.5594159,2.92528567 5.06600886,3.90741283 3.99812797,5.17316144 C2.94921958,6.41547026 2.37191342,7.85232933 2.37191342,9.21886903 L2.37191342,15.6929388 L0.195496269,19.0096689 C-0.0674084178,19.4081453 -0.0646980602,19.8956929 0.200916984,20.2941694 C0.466532028,20.6926458 0.957106752,20.9340756 1.48833684,20.9340756 L6.86839666,20.9340756 C7.17737743,22.66862 8.91200629,24 11.001692,24 C13.0913777,24 14.8260066,22.66862 15.1349873,20.9340756 L20.5123368,20.9340756 C21.097774,20.9340756 21.6290041,20.6363903 21.8702259,20.1746264 C22.1087374,19.7128626 22.0138749,19.1714035 21.6235834,18.7916789 Z M10.9989816,1.22824495 C11.6169432,1.22824495 12.12378,1.65016115 12.153594,2.1775564 C12.0234968,2.15646059 11.8933996,2.13770876 11.7633025,2.12130091 C11.7090953,2.11426897 11.2835692,2.06270144 10.9800091,2.06504541 C10.7767323,2.06738939 10.259054,2.10958101 10.2021365,2.11661295 C10.0828808,2.13067682 9.96362503,2.14708468 9.84707966,2.16818049 C9.8823143,1.64312921 10.3864408,1.23058892 10.9989816,1.22824495 Z M10.9989816,22.774099 C9.65735462,22.7717551 8.49461122,21.9677703 8.19918224,20.8356285 L13.798781,20.8356285 C13.503352,21.9654263 12.3406086,22.7717551 10.9989816,22.774099 L10.9989816,22.774099 Z M20.5529921,19.6894228 C20.5150471,19.7222385 20.46084,19.7409903 20.4066328,19.7409903 L1.59133043,19.7409903 C1.51815077,19.7409903 1.45039183,19.7105186 1.41515719,19.6566071 C1.37721218,19.6003516 1.37721218,19.5300322 1.41244683,19.4737767 L3.6512022,16.0679754 C3.70540935,15.9859361 3.73251293,15.892177 3.73251293,15.7984178 L3.73251293,9.24934076 C3.73251293,6.88192206 5.84930221,4.43480809 8.65723267,3.54878406 C9.1667799,3.41283328 9.6844582,3.30266628 10.2075572,3.22297099 C10.2644747,3.2112511 10.5382208,3.18312335 10.6276626,3.17609142 C10.7577598,3.16437152 10.8715948,3.15968356 10.9800091,3.15968356 C11.0884234,3.15968356 11.2103895,3.15968356 11.3459074,3.17609142 C11.4353492,3.18781131 11.7470403,3.20890712 11.9042411,3.22531497 C12.6631412,3.33548198 13.275682,3.54644008 13.3922274,3.57691181 C16.1486611,4.48403164 18.2275053,6.91942573 18.2275053,9.24934076 L18.2275053,15.7960738 C18.2275053,15.889833 18.2546089,15.9835921 18.3088161,16.0656314 L20.4445778,19.3143862 C20.4743918,19.3589218 20.5123368,19.4011134 20.5557025,19.4386171 C20.5936475,19.4714328 20.6153304,19.5159684 20.61262,19.5628479 C20.61262,19.6097275 20.5909372,19.6566071 20.5529921,19.6894228 Z" id="形状"></path>
                </g>
            </g>
        </g>
    </g>
</svg>