<?xml version="1.0" encoding="UTF-8"?>
<svg width="8px" height="8px" viewBox="0 0 8 8" version="1.1" xmlns="http://www.w3.org/2000/svg" xmlns:xlink="http://www.w3.org/1999/xlink">
    <!-- Generator: Sketch 59.1 (86144) - https://sketch.com -->
    <title>男性</title>
    <desc>Created with Sketch.</desc>
    <g id="页面-1" stroke="none" stroke-width="1" fill="none" fill-rule="evenodd">
        <g id="医生-逾期" transform="translate(-53.000000, -399.000000)" fill="#00BDD7" fill-rule="nonzero">
            <g id="男性" transform="translate(53.000000, 399.000000)">
                <path d="M6.49554827,0.883657823 L6.40713171,0.883657823 C5.93986763,0.883657823 5.4726237,0.882912602 5.00538983,0.884110998 C4.87918119,0.884463467 4.7794532,0.828299993 4.69253744,0.745338776 C4.64167123,0.696798711 4.617054,0.634592904 4.61951169,0.561702241 C4.62215069,0.483554749 4.61961242,0.405286411 4.62003546,0.327108707 C4.62104272,0.134388533 4.75372799,0.00048038867 4.94477342,0.000379683139 C5.73311914,0.000178272077 6.52147493,-0.000627372169 7.30982065,0.000983916323 C7.49247568,0.00133638568 7.65827939,0.0618805508 7.80190341,0.17366369 C7.93691544,0.278770052 8.00018092,0.420915909 8,0.59300152 C7.99919381,1.36267375 7.99967729,2.13235605 7.99967729,2.90203835 C7.99967729,3.12054921 7.90813825,3.22184891 7.68823505,3.23922061 C7.57967346,3.24782086 7.47038665,3.25219148 7.36151281,3.25113407 C7.26999391,3.25027808 7.18927276,3.21274513 7.12294523,3.14925029 C7.08079175,3.10884723 7.06410159,3.05778953 7.06426275,2.99866531 C7.06572326,2.51708139 7.06591464,2.03553775 7.06649885,1.55400419 C7.06651899,1.5296838 7.06649885,1.50532313 7.06649885,1.48240256 C7.04128734,1.47341962 7.03074141,1.48934117 7.01915801,1.49912974 C6.62693419,1.83210251 6.23606008,2.16661607 5.87322786,2.53219729 C5.80507721,2.60087846 5.74173114,2.67383962 5.68070176,2.74905658 C5.65017196,2.78662981 5.65395923,2.81241043 5.68567758,2.84922837 C6.09463186,3.32413551 6.3585016,3.86897258 6.43836659,4.49199741 C6.54779442,5.34537608 6.32520186,6.11375928 5.78961589,6.78391431 C5.25133049,7.4574329 4.54328288,7.85284309 3.69122849,7.966449 C2.71242154,8.09692309 1.83122736,7.84776753 1.07773255,7.20298023 C0.48385693,6.69482012 0.123965884,6.04758568 0.0267459461,5.26884995 C-0.0896117746,4.33677998 0.174268036,3.51700675 0.807063867,2.82354846 C1.33973888,2.23981892 2.00831229,1.90649369 2.78999,1.80314967 C3.48612182,1.71105446 4.15052521,1.82088392 4.77935247,2.13645477 C4.79593867,2.14469744 4.81237304,2.15324205 4.82864737,2.16208432 C4.95257963,2.2300102 4.95282137,2.23036267 5.06112107,2.13630371 C5.53013777,1.72863765 5.99899331,1.32079032 6.46786899,0.912973203 C6.47389236,0.907776797 6.47888833,0.901392067 6.49554827,0.883667893 L6.49554827,0.883657823 Z M3.24851114,2.65877407 C2.81974422,2.66003289 2.4596215,2.75162457 2.07760114,2.9578695 C1.29194478,3.3819707 0.837875698,4.25108964 0.950023106,5.13483103 C1.02345176,5.71333395 1.29061521,6.19252108 1.74071572,6.56220101 C2.27636212,7.00213312 2.89461324,7.16875042 3.58033008,7.07751121 C4.09094627,7.00953498 4.53376435,6.79266562 4.89323235,6.42483866 C5.37470876,5.93209657 5.58753098,5.33710816 5.5239331,4.6482219 C5.47815351,4.15257949 5.2787781,3.72344301 4.93536569,3.36670374 C4.4764618,2.89008461 3.90693145,2.66525951 3.24851114,2.65877407 L3.24851114,2.65877407 Z" id="Shape"></path>
            </g>
        </g>
    </g>
</svg>