<?xml version="1.0" encoding="UTF-8"?>
<svg width="18px" height="18px" viewBox="0 0 18 18" version="1.1" xmlns="http://www.w3.org/2000/svg" xmlns:xlink="http://www.w3.org/1999/xlink">
    <!-- Generator: Sketch 59.1 (86144) - https://sketch.com -->
    <title>男性</title>
    <desc>Created with Sketch.</desc>
    <g id="页面-1" stroke="none" stroke-width="1" fill="none" fill-rule="evenodd">
        <g id="医生-患者详情1" transform="translate(-214.000000, -92.000000)" fill="#00BDD7" fill-rule="nonzero">
            <g id="编组-2" transform="translate(138.000000, 82.000000)">
                <g id="男性" transform="translate(76.000000, 10.000000)">
                    <path d="M14.6149836,1.9882301 L14.4160464,1.9882301 C13.3647022,1.9882301 12.3134033,1.98655335 11.2621271,1.98924974 C10.9781577,1.9900428 10.7537697,1.86367498 10.5582092,1.67701225 C10.4437603,1.5677971 10.3883715,1.42783403 10.3939013,1.26383004 C10.3998391,1.08799819 10.3941279,0.911894424 10.3950798,0.735994591 C10.3973461,0.302374199 10.695888,0.00108087451 11.1257402,0.000854287062 C12.8995181,0.000401112174 14.6733186,-0.00141158738 16.4470965,0.00221381173 C16.8580703,0.00300686778 17.2311286,0.139231239 17.5542827,0.390743302 C17.8580597,0.627232618 18.0004071,0.947060795 18,1.33425342 C17.9981861,3.06601594 17.9992739,4.79780112 17.9992739,6.52958629 C17.9992739,7.02123573 17.7933111,7.24916004 17.2985289,7.28824637 C17.0542653,7.30759694 16.80837,7.31743084 16.5634038,7.31505167 C16.3574863,7.31312568 16.1758637,7.22867653 16.0266268,7.08581315 C15.9317814,6.99490627 15.8942286,6.88002643 15.8945912,6.74699695 C15.8978773,5.66343313 15.8983079,4.57995995 15.8996224,3.49650942 C15.8996677,3.44178856 15.8996224,3.38697705 15.8996224,3.33540575 C15.8428965,3.31519415 15.8191682,3.35101763 15.7931055,3.37304193 C14.9106019,4.12223065 14.0311352,4.87488616 13.2147627,5.6974439 C13.0614237,5.85197654 12.9188951,6.01613914 12.781579,6.18537731 C12.7128869,6.26991708 12.7214083,6.32792347 12.7927746,6.41076384 C13.7129217,7.47930491 14.3066286,8.7051883 14.4863248,10.1069942 C14.7325374,12.0270962 14.2317042,13.7559584 13.0266358,15.2638072 C11.8154936,16.779224 10.2223865,17.668897 8.30526411,17.9245103 C6.10294847,18.2180769 4.12026156,17.6574769 2.42489825,16.2067055 C1.08867809,15.0633453 0.278923239,13.6070678 0.0601783787,11.8549124 C-0.201626493,9.75775495 0.39210308,7.91326518 1.8158937,6.35298404 C3.01441247,5.03959258 4.51870265,4.2896108 6.2774775,4.05708676 C7.8437741,3.84987254 9.33868173,4.09698881 10.7535431,4.80702322 C10.790862,4.82556924 10.8278393,4.84479461 10.8644566,4.86468973 C11.1433042,5.01752296 11.1438481,5.01831602 11.3875224,4.80668334 C12.44281,3.88943471 13.4977349,2.97177822 14.5527052,2.05418971 C14.5662578,2.04249779 14.5774987,2.02813215 14.6149836,1.98825276 L14.6149836,1.9882301 Z M7.30915006,5.98224166 C6.34442449,5.98507401 5.53414838,6.19115529 4.67460256,6.65520637 C2.90687576,7.60943408 1.88522032,9.5649517 2.13755199,11.5533698 C2.30276646,12.8550014 2.90388422,13.9331724 3.91661037,14.7649523 C5.12181477,15.7547995 6.51287979,16.1296884 8.05574267,15.9244002 C9.20462911,15.7714537 10.2009698,15.2834976 11.0097728,14.455887 C12.0930947,13.3472173 12.5719447,12.0084934 12.4288495,10.4584993 C12.3258454,9.34330386 11.8772507,8.37774678 11.1045728,7.57508342 C10.0720391,6.50269036 8.79059577,5.99683389 7.30915006,5.98224166 L7.30915006,5.98224166 Z" id="Shape"></path>
                </g>
            </g>
        </g>
    </g>
</svg>