<?xml version="1.0" encoding="UTF-8"?>
<svg width="100px" height="64px" viewBox="0 0 100 64" version="1.1" xmlns="http://www.w3.org/2000/svg" xmlns:xlink="http://www.w3.org/1999/xlink">
    <!-- Generator: Sketch 59.1 (86144) - https://sketch.com -->
    <title>pic_无数据@2x</title>
    <desc>Created with Sketch.</desc>
    <g id="页面-1" stroke="none" stroke-width="1" fill="none" fill-rule="evenodd">
        <g id="患者-首页" transform="translate(-138.000000, -404.000000)">
            <g id="pic_无数据" transform="translate(138.000000, 405.000000)">
                <g id="搜索无结果" transform="translate(0.000000, 7.570830)" fill-rule="nonzero">
                    <path d="M91.538143,47.3814512 C91.7488687,45.6853264 91.8700442,43.961238 91.8700442,42.2078544 C91.8700442,19.238762 73.2499558,0.618673602 50.2811964,0.618673602 C27.312104,0.618673602 8.6920156,19.238762 8.6920156,42.2078544 C8.6920156,43.961238 8.81319116,45.6849935 9.02391678,47.3814512 L91.538143,47.3814512 Z" id="Shape" fill="#F6F6F6"></path>
                    <path d="M84.4959792,47.3814512 C84.7489831,45.6936489 84.8824759,43.9665644 84.8824759,42.2078544 C84.8824759,23.0980702 69.3909805,7.60624187 50.2811964,7.60624187 C31.1710793,7.60624187 15.6795839,23.0980702 15.6795839,42.2078544 C15.6795839,43.9662315 15.8130767,45.693316 16.0660806,47.3814512 L84.4959792,47.3814512 Z" id="Shape" fill="#E8E8E8"></path>
                    <path d="M53.1697685,48.1877347 C53.1697685,48.6330328 52.8087831,48.9940182 52.363485,48.9940182 L7.21360728,48.9940182 C6.92554991,48.9940182 6.65937392,48.8403415 6.51534522,48.5908765 C6.37131653,48.3414115 6.37131653,48.0340579 6.51534522,47.784593 C6.65937392,47.535128 6.92554991,47.3814512 7.21360728,47.3814512 L52.363485,47.3814512 C52.8087831,47.3814512 53.1697685,47.7424366 53.1697685,48.1877347 Z M99.9325462,48.1877347 C99.9325462,48.6330328 99.5715608,48.9940182 99.1262627,48.9940182 L95.9011287,48.9940182 C95.6130714,48.9940182 95.3468954,48.8403415 95.2028667,48.5908765 C95.058838,48.3414115 95.058838,48.0340579 95.2028667,47.784593 C95.3468954,47.535128 95.6130714,47.3814512 95.9011287,47.3814512 L99.1262627,47.3814512 C99.5715608,47.3814512 99.9325462,47.7424366 99.9325462,48.1877347 Z M4.88996619,48.150117 C4.88996619,48.3621909 4.80572018,48.5655788 4.65576131,48.7155376 C4.50580244,48.8654965 4.30241457,48.9497425 4.0903407,48.9497425 L0.862210663,48.9497425 C0.420589701,48.9497425 0.0625851756,48.591738 0.0625851756,48.150117 L0.0625851756,48.1404629 C0.0625851756,47.698842 0.420589701,47.3408375 0.862210663,47.3408375 L4.0903407,47.3408375 C4.30241457,47.3408375 4.50580244,47.4250835 4.65576131,47.5750423 C4.80572018,47.7250012 4.88996619,47.9283891 4.88996619,48.1404629 L4.88996619,48.150117 L4.88996619,48.150117 Z M93.4822783,48.1877347 C93.4822783,48.6330328 93.1212929,48.9940182 92.6759948,48.9940182 L63.6511209,48.9940182 C63.3630636,48.9940182 63.0968876,48.8403415 62.9528589,48.5908765 C62.8088302,48.3414115 62.8088302,48.0340579 62.9528589,47.784593 C63.0968876,47.535128 63.3630636,47.3814512 63.6511209,47.3814512 L92.6759948,47.3814512 C93.1212929,47.3814512 93.4822783,47.7424366 93.4822783,48.1877347 L93.4822783,48.1877347 Z M61.2322705,48.1877347 C61.2322705,48.6330328 60.8712851,48.9940182 60.425987,48.9940182 L57.2008531,48.9940182 C56.9127957,48.9940182 56.6466197,48.8403415 56.502591,48.5908765 C56.3585623,48.3414115 56.3585623,48.0340579 56.502591,47.784593 C56.6466197,47.535128 56.9127957,47.3814512 57.2008531,47.3814512 L60.425987,47.3814512 C60.8712851,47.3814512 61.2322705,47.7424366 61.2322705,48.1877347 Z M77.3572745,54.234528 C77.3572745,54.3414749 77.3149175,54.4440669 77.2392945,54.5196899 C77.1636716,54.5953128 77.0610796,54.6377581 76.9541326,54.6376698 L47.1213108,54.6376698 C46.8986618,54.6376698 46.7181691,54.457177 46.7181691,54.234528 C46.7181691,54.0118789 46.8986618,53.8313861 47.1213108,53.8313861 L76.9541326,53.8313861 C77.0610796,53.8312978 77.1636716,53.8737431 77.2392945,53.9493661 C77.3149175,54.024989 77.3572745,54.127581 77.3572745,54.234528 L77.3572745,54.234528 Z M45.9118857,54.234528 C45.911974,54.3414749 45.8695286,54.4440669 45.7939057,54.5196899 C45.7182828,54.5953128 45.6156907,54.6377581 45.5087438,54.6376698 L42.2836099,54.6376698 C42.0609608,54.6376698 41.8804681,54.457177 41.8804681,54.234528 C41.8804681,54.0118789 42.0609608,53.8313861 42.2836099,53.8313861 L45.5087438,53.8313861 C45.6156907,53.8312978 45.7182828,53.8737431 45.7939057,53.9493661 C45.8695286,54.024989 45.911974,54.127581 45.9118857,54.234528 L45.9118857,54.234528 Z M79.776125,54.234528 C79.7762133,54.3414749 79.7337679,54.4440669 79.658145,54.5196899 C79.5825221,54.5953128 79.47993,54.6377581 79.3729831,54.6376698 L78.5666996,54.6376698 C78.3440506,54.6376698 78.1635579,54.457177 78.1635579,54.234528 C78.1635579,54.0118789 78.3440506,53.8313861 78.5666996,53.8313861 L79.3729831,53.8313861 C79.47993,53.8312978 79.5825221,53.8737431 79.658145,53.9493661 C79.7337679,54.024989 79.7762133,54.127581 79.776125,54.234528 L79.776125,54.234528 Z M85.4197765,54.234528 C85.4198648,54.3414749 85.3774194,54.4440669 85.3017965,54.5196899 C85.2261736,54.5953128 85.1235815,54.6377581 85.0166346,54.6376698 L81.7915007,54.6376698 C81.5688516,54.6376698 81.3883589,54.457177 81.3883589,54.234528 C81.3883589,54.0118789 81.5688516,53.8313861 81.7915007,53.8313861 L85.0166346,53.8313861 C85.1235815,53.8312978 85.2261736,53.8737431 85.3017965,53.9493661 C85.3774194,54.024989 85.4198648,54.127581 85.4197765,54.234528 L85.4197765,54.234528 Z" id="Shape" fill="#D8D8D8"></path>
                    <path d="M13.7404421,34.1656593 C13.7404421,35.4061325 14.7460444,36.4117347 15.9865176,36.4117347 C17.2269908,36.4117347 18.232593,35.4061325 18.232593,34.1656593 C18.232593,32.9251861 17.2269908,31.9195839 15.9865176,31.9195839 C14.7460444,31.9195839 13.7404421,32.9251861 13.7404421,34.1656593 L13.7404421,34.1656593 Z" id="Shape" fill="#D8D8D8"></path>
                    <path d="M76.2976541,6.82192978 C76.2976541,7.96753353 77.2263494,8.89622887 78.3719532,8.89622887 C79.5175569,8.89622887 80.4462523,7.96753353 80.4462523,6.82192978 C80.4462523,5.67632603 79.5175569,4.74763069 78.3719532,4.74763069 C77.2263494,4.74763069 76.2976541,5.67632603 76.2976541,6.82192978 Z" id="Shape" fill="#FFFFFF"></path>
                    <path d="M86.5955787,10.9102731 C86.5955787,11.0022008 86.5210565,11.076723 86.4291287,11.076723 L85.0975293,11.076723 C85.0056015,11.076723 84.9310793,11.0022008 84.9310793,10.9102731 C84.9310793,10.8183453 85.0056015,10.7438231 85.0975293,10.7438231 L86.4291287,10.7438231 C86.5210565,10.7438231 86.5955787,10.8183453 86.5955787,10.9102731 L86.5955787,10.9102731 Z M86.3222679,11.2345176 C86.386486,11.1966038 86.4661152,11.1960868 86.5308202,11.2331636 C86.5955252,11.2702403 86.6353425,11.3392016 86.6351046,11.4137762 C86.6348644,11.4883507 86.5946058,11.5570553 86.5296645,11.5937165 L85.5279688,12.1719636 C85.4637507,12.2098773 85.3841214,12.2103943 85.3194165,12.1733176 C85.2547115,12.1362408 85.2148941,12.0672795 85.2151321,11.992705 C85.2153722,11.9181304 85.2556308,11.8494258 85.3205722,11.8127646 L86.3222679,11.2345176 L86.3222679,11.2345176 Z M86.6877919,11.7202185 C86.7244531,11.6552771 86.7931578,11.6150185 86.8677323,11.6147784 C86.9423068,11.6145404 87.0112681,11.6543578 87.0483449,11.7190627 C87.0854216,11.7837677 87.0849046,11.863397 87.0469909,11.9276151 L86.4687438,12.9293108 C86.4320827,12.9942521 86.363378,13.0345107 86.2888035,13.0347508 C86.2142289,13.0349888 86.1452676,12.9951715 86.1081909,12.9304665 C86.0711141,12.8657615 86.0716311,12.7861323 86.1095449,12.7219142 L86.6877919,11.7202185 L86.6877919,11.7202185 Z M87.5942783,13.2405722 C87.5942783,13.3324999 87.5197561,13.4070221 87.4278283,13.4070221 C87.3359006,13.4070221 87.2613784,13.3324999 87.2613784,13.2405722 L87.2613784,11.9089727 C87.2613784,11.817045 87.3359006,11.7425228 87.4278283,11.7425228 C87.5197561,11.7425228 87.5942783,11.817045 87.5942783,11.9089727 L87.5942783,13.2405722 L87.5942783,13.2405722 Z M87.8509441,11.8836723 C87.8130303,11.8194542 87.8125134,11.7398249 87.8495901,11.67512 C87.8866668,11.610415 87.9556282,11.5705977 88.0302027,11.5708356 C88.1047772,11.5710757 88.1734819,11.6113343 88.210143,11.6762757 L88.7883901,12.6779714 C88.8263039,12.7421895 88.8268208,12.8218188 88.7897441,12.8865237 C88.7526674,12.9512287 88.683706,12.991046 88.6091315,12.9908081 C88.534557,12.990568 88.4658523,12.9503093 88.4291912,12.885368 L87.8509441,11.8836723 L87.8509441,11.8836723 Z M88.3363121,11.5178153 C88.2713708,11.4811542 88.2311121,11.4124495 88.230872,11.337875 C88.2306341,11.2633005 88.2704514,11.1943391 88.3351564,11.1572624 C88.3998614,11.1201857 88.4794906,11.1207026 88.5437087,11.1586164 L89.5454044,11.7368635 C89.6103458,11.7735246 89.6506044,11.8422293 89.6508445,11.9168038 C89.6510824,11.9913783 89.6112651,12.0603397 89.5465601,12.0974164 C89.4818552,12.1344931 89.4022259,12.1339762 89.3380078,12.0960624 L88.3363121,11.5178153 L88.3363121,11.5178153 Z M89.9245774,10.5773732 C89.9245774,10.669301 89.8500552,10.7438231 89.7581274,10.7438231 L88.426528,10.7438231 C88.3346002,10.7438231 88.260078,10.669301 88.260078,10.5773732 C88.260078,10.4854455 88.3346002,10.4109233 88.426528,10.4109233 L89.7581274,10.4109233 C89.8500552,10.4109233 89.9245774,10.4854455 89.9245774,10.5773732 L89.9245774,10.5773732 Z M88.4997659,10.3549961 C88.4355478,10.3929098 88.3559186,10.3934268 88.2912136,10.3563501 C88.2265086,10.3192733 88.1866913,10.250312 88.1869293,10.1757375 C88.1871694,10.101163 88.227428,10.0324583 88.2923693,9.99579714 L89.294065,9.41755007 C89.3582831,9.37963632 89.4379124,9.37911934 89.5026174,9.41619608 C89.5673223,9.45327281 89.6071397,9.52223414 89.6069017,9.59680867 C89.6066616,9.67138321 89.566403,9.74008786 89.5014616,9.77674902 L88.4997659,10.3549961 L88.4997659,10.3549961 Z M88.133909,9.86929519 C88.0972478,9.93423652 88.0285432,9.97449513 87.9539686,9.97473525 C87.8793941,9.97497322 87.8104328,9.93515588 87.773356,9.87045091 C87.7362793,9.80574593 87.7367963,9.72611668 87.77471,9.66189857 L88.3529571,8.66020286 C88.3896183,8.59526153 88.4583229,8.55500292 88.5328974,8.5547628 C88.607472,8.55452483 88.6764333,8.59434217 88.71351,8.65904714 C88.7505868,8.72375212 88.7500698,8.80338137 88.712156,8.86759948 L88.133909,9.86929519 L88.133909,9.86929519 Z M87.5942783,9.91157347 C87.5942783,10.0035012 87.5197561,10.0780234 87.4278283,10.0780234 C87.3359006,10.0780234 87.2613784,10.0035012 87.2613784,9.91157347 L87.2613784,8.57997399 C87.2613784,8.48804625 87.3359006,8.41352411 87.4278283,8.41352411 C87.5197561,8.41352411 87.5942783,8.48804625 87.5942783,8.57997399 L87.5942783,9.91157347 Z M86.9710897,9.70584135 C87.0090035,9.77005947 87.0095205,9.84968871 86.9724437,9.91439369 C86.935367,9.97909866 86.8664057,10.018916 86.7918311,10.018678 C86.7172566,10.0184379 86.6485519,9.97817931 86.6118908,9.91323797 L86.0336437,8.91154226 C85.9957299,8.84732415 85.995213,8.7676949 86.0322897,8.70298993 C86.0693664,8.63828495 86.1383278,8.59846762 86.2129023,8.59870559 C86.2874768,8.5989457 86.3561815,8.63920431 86.3928427,8.70414564 L86.9710897,9.70584135 Z M86.4853888,10.0716983 C86.5503302,10.1083595 86.5905888,10.1770641 86.5908289,10.2516387 C86.5910668,10.3262132 86.5512495,10.3951745 86.4865445,10.4322513 C86.4218396,10.469328 86.3422103,10.468811 86.2779922,10.4308973 L85.2762965,9.8526502 C85.2113552,9.81598903 85.1710965,9.74728438 85.1708564,9.67270984 C85.1706185,9.59813531 85.2104358,9.52917398 85.2751408,9.49209725 C85.3398457,9.45502051 85.419475,9.45553749 85.4836931,9.49345124 L86.4853888,10.0716983 L86.4853888,10.0716983 Z" id="Shape" fill="#D8D8D8"></path>
                    <path d="M77.8666112,13.4070221 L77.2743823,13.4070221 L77.2743823,12.9849051 C77.2743823,12.8514122 77.0746424,12.7435527 76.9414824,12.7435527 C76.8083225,12.7435527 76.6085826,12.8517451 76.6085826,12.9849051 L76.6085826,13.4070221 L75.935459,13.4070221 C75.8022991,13.4070221 75.6941066,13.7728791 75.6941066,13.9063719 C75.6941066,14.0395319 75.8022991,14.4057217 75.935459,14.4057217 L76.6085826,14.4057217 L76.6085826,14.9157243 C76.6085826,15.0488843 76.8083225,15.1570767 76.9414824,15.1570767 C77.0746424,15.1570767 77.2743823,15.0488843 77.2743823,14.9157243 L77.2743823,14.4057217 L77.8666112,14.4057217 C77.9997711,14.4057217 78.1079636,14.0395319 78.1079636,13.9063719 C78.1079636,13.7728791 77.9997711,13.4070221 77.8666112,13.4070221 L77.8666112,13.4070221 Z M20.7403277,41.0377113 L20.0156047,41.0377113 L20.0156047,40.3409519 C20.0156047,40.207459 19.8158648,40.0995995 19.6827048,40.0995995 C19.5495449,40.0995995 19.3498049,40.2077919 19.3498049,40.3409519 L19.3498049,41.0377113 L18.8095085,41.0377113 C18.6763485,41.0377113 18.568156,41.2371183 18.568156,41.3706112 C18.568156,41.5037711 18.6763485,41.7035111 18.8095085,41.7035111 L19.3498049,41.7035111 L19.3498049,42.2717711 C19.3498049,42.4049311 19.5495449,42.5131235 19.6827048,42.5131235 C19.8158648,42.5131235 20.0156047,42.4049311 20.0156047,42.2717711 L20.0156047,41.7035111 L20.7403277,41.7035111 C20.8734876,41.7035111 20.9816801,41.5037711 20.9816801,41.3706112 C20.9816801,41.2371183 20.8738205,41.0377113 20.7403277,41.0377113 L20.7403277,41.0377113 Z" id="Shape" fill="#D8D8D8"></path>
                </g>
                <g id="暂时没有数据-copy" transform="translate(30.000000, 0.100686)">
                    <path d="M21.5984594,1.44569093 C22.8670611,1.44569093 23.9054742,2.42217626 23.9898062,3.67604763 L23.9953359,3.84111169 L23.9920714,3.93784024 C25.6103899,4.31126895 26.8320225,5.72345933 26.9187034,7.42934494 L26.9236281,7.62361824 C26.9236281,9.71263893 25.2296158,11.4061248 23.1388228,11.4061248 L14.7378502,11.4061248 C12.6475599,11.4061248 10.9530449,9.70838819 10.9530449,7.62361824 C10.9530449,5.82783099 12.2048619,4.32433041 13.8844452,3.93762425 C13.8819944,3.90688305 13.8813371,3.87407972 13.8813371,3.84111169 C13.8813371,2.51815733 14.9637122,1.44569093 16.2782137,1.44569093 L21.5984594,1.44569093 Z" id="Combined-Shape" fill="#FFFFFF"></path>
                    <path d="M16.2109488,21.4907837 C16.2109488,23.6714039 14.4432068,25.4391458 12.2625867,25.4391458 C10.0819666,25.4391458 8.31422466,23.6714039 8.31422466,21.4907837 C8.31422466,19.3101636 10.0819666,17.5424217 12.2625867,17.5424217 L12.2625867,17.5424217 L12.2625867,21.4907837 Z" id="Combined-Shape" fill="#EFF7EF"></path>
                    <path d="M32.1336062,8.57142857 C34.9001391,8.57142857 37.1428571,10.8152733 37.1428571,13.5715637 L37.1428571,46.4284363 C37.1428571,49.1899347 34.9030508,51.4285714 32.1336062,51.4285714 L5.00925098,51.4285714 C2.24271806,51.4285714 0,49.1847267 0,46.4284363 L0,13.5715637 C0,10.8100653 2.23980637,8.57142857 5.00925098,8.57142857 L32.1336062,8.57142857 Z M35.1454317,38.5714286 L7.99899199,38.5714286 C7.21268353,38.5714286 6.57221186,39.2110218 6.57221186,40 C6.57221186,40.7944788 7.21100308,41.4285714 7.99899199,41.4285714 L7.99899199,41.4285714 L35.1454317,41.4285714 C35.9317402,41.4285714 36.5722119,40.7889782 36.5722119,40 L36.5722119,40 L36.5656805,39.8615592 C36.4965437,39.1331161 35.8870683,38.5714286 35.1454317,38.5714286 L35.1454317,38.5714286 Z M35.1454317,31.4285714 L7.99899199,31.4285714 C7.21268353,31.4285714 6.57221186,32.0681646 6.57221186,32.8571429 C6.57221186,33.6516217 7.21100308,34.2857143 7.99899199,34.2857143 L7.99899199,34.2857143 L35.1454317,34.2857143 C35.9317402,34.2857143 36.5722119,33.6461211 36.5722119,32.8571429 L36.5722119,32.8571429 L36.5656805,32.718702 C36.4965437,31.990259 35.8870683,31.4285714 35.1454317,31.4285714 L35.1454317,31.4285714 Z M11.6590789,16.4645088 L9.27852183,16.9912043 C7.35969709,17.8880253 6.03024877,19.8354275 6.03024877,22.093339 C6.03024877,25.128039 8.43178513,27.6018301 11.4380548,27.7179093 L11.6590789,27.7221691 C14.767796,27.7221691 17.2879091,25.202056 17.2879091,22.093339 C17.2879091,18.9846219 14.767796,16.4645088 11.6590789,16.4645088 Z M35.1512212,24.2857143 L21.3265358,24.2857143 C20.5385465,24.2857143 19.9055452,24.9253075 19.9055452,25.7142857 C19.9055452,26.5087645 20.5417444,27.1428571 21.3265358,27.1428571 L21.3265358,27.1428571 L35.1512212,27.1428571 C35.9392105,27.1428571 36.5722119,26.5032639 36.5722119,25.7142857 L36.5722119,25.7142857 L36.565707,25.5758449 C36.4968507,24.8474019 35.8898485,24.2857143 35.1512212,24.2857143 L35.1512212,24.2857143 Z M35.1512212,17.1428571 L21.3265358,17.1428571 C20.5385465,17.1428571 19.9055452,17.7824504 19.9055452,18.5714286 C19.9055452,19.3659074 20.5417444,20 21.3265358,20 L21.3265358,20 L35.1512212,20 C35.9392105,20 36.5722119,19.3604068 36.5722119,18.5714286 L36.5722119,18.5714286 L36.565707,18.4329878 C36.4968507,17.7045447 35.8898485,17.1428571 35.1512212,17.1428571 L35.1512212,17.1428571 Z" id="Combined-Shape" fill="#FFFFFF"></path>
                    <line x1="21.3849919" y1="25.6666667" x2="35.716927" y2="25.6666667" id="Line" stroke="#D8D8D8" stroke-linecap="round"></line>
                    <line x1="6.42527937" y1="32.6666667" x2="35.716927" y2="32.6666667" id="Line" stroke="#D8D8D8" stroke-linecap="round"></line>
                    <line x1="6.42527937" y1="39.6666667" x2="35.716927" y2="39.6666667" id="Line" stroke="#D8D8D8" stroke-linecap="round"></line>
                    <line x1="21.3849919" y1="18.6666667" x2="35.716927" y2="18.6666667" id="Line" stroke="#D8D8D8" stroke-linecap="round"></line>
                    <path d="M35.8838544,6.24025113 L3.57110707,6.24025113 C1.87437159,6.24025113 0.5,7.61754569 0.5,9.31805649 L0.5,45.432769 C0.5,47.1312578 1.87608554,48.5105743 3.57110707,48.5105743 L35.8855679,48.5105743 C37.5835228,48.5105743 38.9566749,47.1339887 38.9566749,45.432769 L38.9566749,9.31805649 C38.9566749,7.6196212 37.5798757,6.24025113 35.8838544,6.24025113 Z" id="Rectangle-27" stroke="#D8D8D8"></path>
                    <path d="M10.1479758,16.8487271 C8.44351443,17.6453589 7.2625867,19.3752052 7.2625867,21.3808719 C7.2625867,24.1422957 9.50116296,26.3808719 12.2625867,26.3808719 L12.2625867,26.3808719 C15.0240105,26.3808719 17.2625867,24.1422957 17.2625867,21.3808719 C17.2625867,18.6194482 15.0240105,16.3808719 12.2625867,16.3808719" id="Oval" stroke="#D8D8D8" stroke-linecap="round"></path>
                    <path d="M24.071859,2.6808144 C26.0413367,2.6808144 27.6379138,4.27444886 27.6379138,6.24941071 L27.6379138,7.58483518 C27.6379138,9.5557165 26.0359959,11.1534315 24.071859,11.1534315 L15.8286416,11.1534315 C13.8591639,11.1534315 12.2625867,9.55979702 12.2625867,7.58483518 L12.2625867,6.24941071 C12.2625867,4.27852939 13.8645047,2.6808144 15.8286416,2.6808144" id="Rectangle-27" stroke="#D8D8D8"></path>
                    <path d="M15.4674731,2.6808144 L15.4674731,2.6808144 L15.4674731,2.6808144 C15.4674731,1.31653469 16.566826,0.210567471 17.9410834,0.210567471 L21.9594172,0.210567471 C23.3255544,0.210567471 24.4330274,1.31931073 24.4330274,2.6808144 L24.4330274,2.6808144" id="Rectangle-27" stroke="#D8D8D8" stroke-linecap="round"></path>
                </g>
            </g>
        </g>
    </g>
</svg>