<?xml version="1.0" encoding="UTF-8"?>
<svg width="18px" height="18px" viewBox="0 0 18 18" version="1.1" xmlns="http://www.w3.org/2000/svg" xmlns:xlink="http://www.w3.org/1999/xlink">
    <!-- Generator: Sketch 59.1 (86144) - https://sketch.com -->
    <title>lujing</title>
    <desc>Created with Sketch.</desc>
    <g id="页面-1" stroke="none" stroke-width="1" fill="none" fill-rule="evenodd">
        <g id="医生-患者详情" transform="translate(-214.000000, -92.000000)" fill="#F91E69" fill-rule="nonzero">
            <g id="编组-2" transform="translate(138.000000, 82.000000)">
                <g id="lujing" transform="translate(76.000000, 10.000000)">
                    <path d="M16.003395,1.99104478 C13.4721917,-0.52027746 9.42325812,-0.665286328 6.71715507,1.65846656 C4.01105202,3.98221945 3.56293391,7.98888353 5.689395,10.8477612 L4.514895,12.0164179 L1.70989501,9.22537313 C1.31970583,8.83712519 0.687084182,8.83712519 0.296895006,9.22537313 C-0.0932941699,9.61362106 -0.0932941699,10.2430953 0.296895006,10.6313433 L3.101895,13.4223881 L2.01439499,14.5044776 C1.62420582,14.8927255 1.62420582,15.5221998 2.01439499,15.9104478 C2.40458417,16.2986957 3.03720582,16.2986957 3.42739499,15.9104478 L4.514895,14.8283582 L7.31989499,17.619403 C7.71008417,18.0076509 8.34270581,18.0076509 8.73289498,17.619403 C9.12308416,17.231155 9.12308416,16.6016808 8.73289499,16.2134328 L5.927895,13.4223881 L7.102395,12.2537313 C9.97556706,14.369613 14.0022645,13.9237244 16.3376361,11.2310845 C18.6730078,8.53844467 18.5272739,4.509655 16.003395,1.99104478 L16.003395,1.99104478 Z M14.590395,10.2 C12.9608415,11.8220288 10.4067039,12.0728225 8.48995374,10.7990094 C6.57320356,9.52519631 5.82766569,7.08154002 6.70927047,4.96244757 C7.59087525,2.84335513 9.85409115,1.63900485 12.1148586,2.08591175 C14.3756261,2.53281865 16.0043096,4.50651683 16.004905,6.80000001 C16.0075061,8.07427834 15.4982477,9.29675873 14.590395,10.1955224 L14.590395,10.2 Z" id="形状"></path>
                </g>
            </g>
        </g>
    </g>
</svg>