<?xml version="1.0" encoding="UTF-8"?>
<svg width="15px" height="16px" viewBox="0 0 15 16" version="1.1" xmlns="http://www.w3.org/2000/svg" xmlns:xlink="http://www.w3.org/1999/xlink">
    <!-- Generator: Sketch 59.1 (86144) - https://sketch.com -->
    <title>yaosuda-</title>
    <desc>Created with Sketch.</desc>
    <g id="页面-1" stroke="none" stroke-width="1" fill="none" fill-rule="evenodd">
        <g id="医生-我的" transform="translate(-16.000000, -280.000000)" fill="#253A52" fill-rule="nonzero">
            <g id="yaosuda-" transform="translate(16.000000, 280.000000)">
                <path d="M13.7978647,0 L1.79661777,0 C1.21214146,0 0.705595322,0.518703234 0.705595322,1.15710723 L0.705595322,3.71072319 C0.705595322,4.02992519 0.939385849,4.26932667 1.25110655,4.26932669 C1.56282726,4.26932669 1.79661777,4.02992519 1.79661777,3.71072319 L1.79661777,1.15710723 L13.7588996,1.15710723 L13.7588996,14.8428928 L1.79661777,14.8428928 L1.79661777,12.8478803 C1.79661777,12.5286783 1.56282724,12.2892768 1.25110655,12.2892768 C0.939385849,12.2892768 0.705595322,12.5286783 0.705595322,12.8478803 L0.705595322,14.8428928 C0.705595322,15.4812968 1.21214145,16 1.83558286,16 L13.7978647,16 C14.421306,16 14.9278522,15.4812968 14.9278522,14.8428928 L14.9278522,1.15710723 C14.8888871,0.518703234 14.382341,0 13.7978647,0 Z" id="路径"></path>
                <path d="M2.22523373,10.5336658 C2.22523373,10.2144638 1.99144321,9.97506234 1.6797225,9.97506234 L0.54973497,9.97506234 C0.238014267,9.97506234 0.00422375488,10.2144638 0.00422375488,10.5336658 C0.00422375488,10.8528678 0.238014282,11.0922693 0.54973497,11.0922693 L1.6797225,11.0922693 C1.99144321,11.1321696 2.22523373,10.8528678 2.22523373,10.5336658 Z M0.54973497,7.70074812 C0.238014267,7.70074812 0.00422375488,7.94014963 0.00422375488,8.25935162 C0.00422375488,8.57855362 0.238014282,8.81795511 0.54973497,8.81795511 L1.6797225,8.81795511 C1.99144321,8.81795511 2.22523373,8.57855361 2.22523373,8.25935162 C2.22523373,7.94014963 1.99144321,7.70074812 1.6797225,7.70074812 L0.54973497,7.70074812 L0.54973497,7.70074812 Z M0.54973497,6.54364089 L1.6797225,6.54364089 C1.99144321,6.54364089 2.22523373,6.30423939 2.22523373,5.98503741 C2.22523373,5.66583541 1.99144321,5.42643392 1.6797225,5.42643392 L0.54973497,5.42643392 C0.238014267,5.42643392 0.00422375488,5.66583542 0.00422375488,5.98503741 C0.00422375488,6.30423941 0.238014282,6.54364089 0.54973497,6.54364089 Z M3.97866266,11.9301746 C3.97866266,12.2493766 4.21245319,12.4887781 4.52417387,12.4887781 C4.83589458,12.4887781 5.06968509,12.2493766 5.0696851,11.9301746 C5.0696851,10.4139651 6.23863773,9.17705736 7.71931104,9.13715711 L7.87517139,9.13715711 C9.3558447,9.17705736 10.5247973,10.4139651 10.5247973,11.9301746 C10.5247973,12.2493766 10.7585878,12.4887781 11.0703085,12.4887781 C11.3820293,12.4887781 11.6158198,12.2493766 11.6158198,11.9301746 L11.6158198,11.6907731 C11.5768547,10.2543641 10.7975529,9.05735661 9.6675654,8.37905238 C10.2130766,7.86034914 10.5637624,7.10224439 10.5637624,6.30423941 C10.5637624,4.74812969 9.31687961,3.4713217 7.79724121,3.4713217 C6.27760281,3.4713217 5.03072002,4.74812969 5.03072002,6.30423941 C5.03072002,7.14214464 5.38140581,7.90024938 5.92691702,8.41895263 C4.71899931,9.09725686 3.93969757,10.4538653 3.97866266,11.9301746 L3.97866266,11.9301746 Z M6.12174246,6.30423941 C6.12174246,5.34663342 6.86207912,4.58852867 7.79724121,4.58852867 C8.73240331,4.58852867 9.47273996,5.34663341 9.47273996,6.30423941 C9.47273996,7.06234414 8.96619383,7.70074814 8.30378734,7.94014963 C8.1089619,7.90024938 7.91413646,7.90024938 7.68034595,7.90024938 C7.56345068,7.90024938 7.40759033,7.90024938 7.29069508,7.94014963 C6.6282886,7.70074813 6.12174246,7.06234414 6.12174246,6.30423941 Z" id="形状"></path>
            </g>
        </g>
    </g>
</svg>