<?xml version="1.0" encoding="UTF-8"?>
<svg width="17px" height="16px" viewBox="0 0 17 16" version="1.1" xmlns="http://www.w3.org/2000/svg" xmlns:xlink="http://www.w3.org/1999/xlink">
    <!-- Generator: Sketch 59.1 (86144) - https://sketch.com -->
    <title>Search Icon@2x</title>
    <desc>Created with Sketch.</desc>
    <g id="页面-1" stroke="none" stroke-width="1" fill="none" fill-rule="evenodd">
        <g id="患者-找医生-搜索" transform="translate(-35.000000, -81.000000)" fill="#C0C4C7">
            <g id="Navigation-Bar/Search---Grey-Active" transform="translate(0.000000, 64.000000)">
                <path d="M42.1091714,17 C46.0354584,17 49.2183428,20.1828845 49.2183428,24.1091714 C49.2183428,25.5417298 48.7946204,26.8753226 48.0656673,27.9914578 C48.0714527,27.9954462 48.0766221,28.0000042 48.0817553,28.0046261 L50.8358649,30.4844375 C51.2111821,30.8223746 51.2690284,31.3809838 50.9843994,31.788454 L50.9060927,31.8869576 C50.5382849,32.2954496 49.9084702,32.327981 49.503915,31.9637178 L46.7556183,29.4899246 C45.5095363,30.5669116 43.8854288,31.2183428 42.1091714,31.2183428 C38.1828845,31.2183428 35,28.0354584 35,24.1091714 C35,20.1828845 38.1828845,17 42.1091714,17 Z M42.1091714,18.4218343 C38.9681419,18.4218343 36.4218343,20.9681419 36.4218343,24.1091714 C36.4218343,27.250201 38.9681419,29.7965085 42.1091714,29.7965085 C45.250201,29.7965085 47.7965085,27.250201 47.7965085,24.1091714 C47.7965085,20.9681419 45.250201,18.4218343 42.1091714,18.4218343 Z" id="Search-Icon"></path>
            </g>
        </g>
    </g>
</svg>