<?xml version="1.0" encoding="UTF-8"?>
<svg width="18px" height="18px" viewBox="0 0 18 18" version="1.1" xmlns="http://www.w3.org/2000/svg" xmlns:xlink="http://www.w3.org/1999/xlink">
    <!-- Generator: Sketch 59.1 (86144) - https://sketch.com -->
    <title>setting</title>
    <desc>Created with Sketch.</desc>
    <g id="页面-1" stroke="none" stroke-width="1" fill="none" fill-rule="evenodd">
        <g id="医生-我的" transform="translate(-337.000000, -70.000000)" fill="#FFFFFF" fill-rule="nonzero">
            <g id="setting" transform="translate(337.000000, 70.000000)">
                <path d="M16.308561,8.94626524 C16.308561,8.1746633 16.7771265,7.49626603 17.5021358,7.21797159 L17.8733244,7.07549633 L17.7751519,6.69029693 C17.561418,5.85000464 17.2281573,5.04474813 16.7855679,4.29916923 L16.5826833,3.95739936 L16.2195285,4.11885321 C15.9800501,4.22570553 15.7206988,4.28075791 15.4584638,4.2804041 C14.9685856,4.28178381 14.4985965,4.0867425 14.1536372,3.73891271 C13.6079542,3.19322973 13.4595215,2.38248687 13.775579,1.67348711 L13.9377315,1.30963377 L13.5949525,1.10676855 C12.8486314,0.664729669 12.0429924,0.331567974 11.202447,0.117378558 L10.8179462,0.0193031041 L10.6750634,0.389599072 C10.3949837,1.11520995 9.71637296,1.58406651 8.9464593,1.58406651 C8.17495438,1.58406651 7.49655711,1.11550103 7.21816565,0.39029767 L7.07569038,0.0193031041 L6.69049098,0.117378558 C5.85017942,0.33108215 5.04492061,0.664379228 4.29938269,1.10705964 L3.95759341,1.30994426 L4.11904727,1.673099 C4.43469732,2.38270033 4.28626456,3.19363724 3.74108613,3.73891271 C3.39285422,4.08724164 2.92865499,4.27910393 2.43416375,4.27910393 C2.17046225,4.27910393 1.91493048,4.22515661 1.67478728,4.11863975 L1.31252519,3.95798153 L1.10954354,4.29849003 C0.665447372,5.04381903 0.331371409,5.849404 0.117669641,6.69027752 L0.0198076478,7.07479773 L0.390006588,7.2176611 C1.11530698,7.49776025 1.58406651,8.17625455 1.58406651,8.94626524 C1.58406651,9.71777016 1.11550103,10.3961674 0.39029767,10.6746753 L0.0192060769,10.8172476 L0.117281531,11.202447 C0.331067736,12.0426852 0.664325781,12.8478959 1.10686558,13.5934583 L1.3097502,13.9353446 L1.67300197,13.7736967 C1.91243892,13.6668198 2.17176254,13.6117596 2.43396969,13.6121264 C2.92706374,13.6121264 3.39027329,13.8042798 3.73869925,14.1535402 C4.28447925,14.6992814 4.43281498,15.5100436 4.11685445,16.2190434 L3.95470199,16.5828967 L4.29748095,16.7857619 C5.04376846,17.2278452 5.84941874,17.5609788 6.68998644,17.7750549 L7.07448724,17.8730333 L7.21737002,17.502815 C7.49776026,16.7773205 8.17625455,16.308561 8.94626524,16.308561 C9.71786719,16.308561 10.3962645,16.7771265 10.6746753,17.5022328 L10.8172476,17.8733244 L11.202447,17.7751519 C12.0426984,17.5613594 12.8479358,17.2281365 13.5935553,16.7856649 L13.9354416,16.5826833 L13.7737937,16.2194315 C13.4581243,15.5098302 13.606363,14.6989903 14.1517354,14.1536178 C14.4999868,13.8052889 14.9640696,13.6134266 15.4584638,13.6134266 C15.7221653,13.6134266 15.9778135,13.6674709 16.2179567,13.7738907 L16.5802964,13.934646 L16.783181,13.5940405 C17.2272399,12.8487273 17.5613138,12.0431798 17.7750549,11.20235 L17.8730333,10.8171506 L17.5020194,10.6745589 C16.7769324,10.3962839 16.308561,9.71777016 16.308561,8.94626524 L16.308561,8.94626524 Z M16.1949029,12.8184798 C15.9550302,12.7522971 15.707299,12.7189072 15.4584638,12.7192206 C14.7250131,12.7192206 14.0363891,13.0040741 13.5192322,13.521328 C12.8078262,14.2329281 12.5513047,15.2479334 12.8174901,16.1967853 C12.3446519,16.4493289 11.848136,16.654786 11.3351031,16.8103099 C10.8524104,15.9507816 9.95294555,15.414355 8.94626524,15.414355 C7.94137024,15.414355 7.04200242,15.9508786 6.55802896,16.8103099 C6.04387584,16.6546648 5.54626241,16.4488701 5.07236242,16.1958926 C5.33078561,15.2543954 5.07108166,14.2210907 4.37161,13.5217161 C3.85464718,13.0033949 3.16660537,12.7179398 2.43416375,12.7179398 C2.18228021,12.7179398 1.93528686,12.7514143 1.69603631,12.8178782 C1.44330091,12.344957 1.23773668,11.8483035 1.08231761,11.3351031 C1.9417489,10.8524104 2.47827247,9.95294555 2.47827247,8.94626524 C2.47827247,7.94127322 1.9417489,7.04190539 1.08231761,6.55802896 C1.2377753,6.04426077 1.44385698,5.5471959 1.69753054,5.07414773 C1.93608249,5.14012647 2.1825907,5.17340692 2.43396969,5.17340692 C3.16730397,5.17340692 3.85604437,4.88855342 4.37320125,4.37129951 C5.08468492,3.65971882 5.34132281,2.64479117 5.07515681,1.69586166 C5.5479128,1.4432053 6.04440654,1.23773093 6.5574468,1.08233702 C7.04012008,1.94184592 7.93958494,2.4783695 8.94616822,2.4783695 C9.95116024,2.4783695 10.850431,1.94194295 11.3344045,1.08233702 C11.8485441,1.23805288 12.3461532,1.44387179 12.820071,1.69683194 C12.5615314,2.6382321 12.8213518,3.67153677 13.5207264,4.37100843 C14.0377669,4.88934904 14.7259251,5.17478471 15.4582697,5.17478471 C15.7077375,5.1750959 15.9560885,5.14147496 16.1964942,5.07484633 C16.4491541,5.54779554 16.6546778,6.04445177 16.8101353,6.55764085 C15.9506846,7.04012008 15.4143744,7.93950732 15.4143744,8.94626524 C15.4143744,9.95294555 15.950704,10.8524104 16.8101353,11.3350837 C16.6545613,11.8486547 16.4484836,12.3455473 16.1949223,12.8184798 L16.1949029,12.8184798 Z" id="形状"></path>
                <path d="M8.94626524,6.19419503 C7.42879307,6.19419503 6.19419503,7.42879307 6.19419503,8.94626524 C6.19419503,10.4638344 7.42879307,11.6984325 8.94626524,11.6984325 C10.4638344,11.6984325 11.6984325,10.4638344 11.6984325,8.94626524 C11.6984325,7.42879307 10.4638344,6.19419503 8.94626524,6.19419503 Z M8.94626524,10.8042265 C7.92180949,10.8042265 7.08840099,9.970721 7.08840099,8.94626524 C7.08840099,7.92180949 7.92190652,7.08840099 8.94626524,7.08840099 C9.97081803,7.08840099 10.8042265,7.92190652 10.8042265,8.94626524 C10.8042265,9.97081803 9.97081803,10.8042265 8.94626524,10.8042265 L8.94626524,10.8042265 Z" id="形状"></path>
            </g>
        </g>
    </g>
</svg>