<?xml version="1.0" encoding="UTF-8"?>
<svg width="80px" height="80px" viewBox="0 0 80 80" version="1.1" xmlns="http://www.w3.org/2000/svg" xmlns:xlink="http://www.w3.org/1999/xlink">
    <!-- Generator: Sketch 59.1 (86144) - https://sketch.com -->
    <title>编组 4</title>
    <desc>Created with Sketch.</desc>
    <defs>
        <path d="M40,0 C62.09139,-4.05812251e-15 80,17.90861 80,40 C80,62.09139 62.09139,80 40,80 C17.90861,80 2.705415e-15,62.09139 0,40 C-2.705415e-15,17.90861 17.90861,4.05812251e-15 40,0 Z" id="path-1"></path>
        <linearGradient x1="69.143556%" y1="39.7601876%" x2="41.6404757%" y2="61.4175859%" id="linearGradient-3">
            <stop stop-color="#F7F6F7" offset="0%"></stop>
            <stop stop-color="#EDEAED" offset="100%"></stop>
        </linearGradient>
        <path d="M0,31.9501669 C0.78252861,17.234936 2.35963689,9.15264592 4.73132485,7.70329657 C8.28885678,5.52927254 13.806869,4.46299927 18.2734212,3.19202087 C21.2511227,2.34470194 24.6031108,1.31104686 28.3293854,0.0910556209 L42.5842017,0.0910556209 L50.4927916,3.19202087 C57.6113136,4.67100454 61.6493087,5.61015834 62.6067771,6.00948227 C64.0429798,6.60846816 66.3673091,7.35972394 68.2672694,11.4672514 C69.5339096,14.205603 70.2448198,21.0332415 70.4,31.9501669 L0,31.9501669 Z" id="path-4"></path>
        <linearGradient x1="53.8780098%" y1="6.32110291%" x2="44.900826%" y2="107.036211%" id="linearGradient-6">
            <stop stop-color="#F2F3F4" offset="0%"></stop>
            <stop stop-color="#D8DADD" offset="100%"></stop>
        </linearGradient>
        <linearGradient x1="58.1372945%" y1="86.5972025%" x2="45.9256084%" y2="9.89496263%" id="linearGradient-7">
            <stop stop-color="#E5E5E5" offset="0%"></stop>
            <stop stop-color="#DFE0E2" offset="100%"></stop>
        </linearGradient>
        <linearGradient x1="50%" y1="0%" x2="77.0533205%" y2="85.3528%" id="linearGradient-8">
            <stop stop-color="#F7AA84" offset="0%"></stop>
            <stop stop-color="#FFD3C0" offset="100%"></stop>
        </linearGradient>
        <linearGradient x1="70.6259709%" y1="-43.7580005%" x2="70.6259709%" y2="81.0484828%" id="linearGradient-9">
            <stop stop-color="#FCE7DD" offset="0%"></stop>
            <stop stop-color="#F4B296" offset="100%"></stop>
        </linearGradient>
        <linearGradient x1="57.4275951%" y1="15.8351864%" x2="50%" y2="96.6462765%" id="linearGradient-10">
            <stop stop-color="#FCE7DD" offset="0%"></stop>
            <stop stop-color="#F8C2AB" offset="100%"></stop>
        </linearGradient>
        <linearGradient x1="73.3393892%" y1="15.8351864%" x2="50%" y2="96.6462765%" id="linearGradient-11">
            <stop stop-color="#FCE7DD" offset="0%"></stop>
            <stop stop-color="#F8C2AB" offset="100%"></stop>
        </linearGradient>
    </defs>
    <g id="页面-1" stroke="none" stroke-width="1" fill="none" fill-rule="evenodd">
        <g id="患者-首页" transform="translate(-55.000000, -115.000000)">
            <g id="编组-4" transform="translate(55.000000, 115.000000)">
                <mask id="mask-2" fill="white">
                    <use xlink:href="#path-1"></use>
                </mask>
                <use id="蒙版" fill="#F0F5F9" xlink:href="#path-1"></use>
                <g id="编组" mask="url(#mask-2)">
                    <g transform="translate(4.266667, 56.000000)">
                        <mask id="mask-5" fill="white">
                            <use xlink:href="#path-4"></use>
                        </mask>
                        <use id="路径-4" stroke="none" fill="url(#linearGradient-3)" fill-rule="evenodd" xlink:href="#path-4"></use>
                        <rect id="矩形" stroke="none" fill="#D6D8E0" fill-rule="evenodd" mask="url(#mask-5)" x="27.9172414" y="0" width="15.0510345" height="3.14660734"></rect>
                        <polygon id="路径-6" stroke="none" fill="#FFFFFF" fill-rule="evenodd" mask="url(#mask-5)" points="27.4317241 3.8727475 33.1385204 31.2240267 37.9897555 31.2240267 43.6965517 3.8727475"></polygon>
                        <polygon id="路径-5" stroke="none" fill="url(#linearGradient-6)" fill-rule="evenodd" mask="url(#mask-5)" points="42.5017629 4.54747351e-13 37.9897555 31.2240267 48.9707843 14.9052819 45.7802681 11.6407664 48.9707843 9.85321809 49.7694546 2.44175947"></polygon>
                        <polygon id="路径-5备份" stroke="none" fill="url(#linearGradient-7)" fill-rule="evenodd" mask="url(#mask-5)" transform="translate(27.295010, 16.020611) scale(-1, 1) translate(-27.295010, -16.020611) " points="26.2023282 4.54747351e-13 20.8320108 32.0412225 32.6713496 14.9052819 29.4808335 11.6407664 32.6713496 9.85321809 33.7580091 1.57330367"></polygon>
                    </g>
                </g>
                <g id="编组-3" mask="url(#mask-2)">
                    <g transform="translate(21.928440, 52.921646)">
                        <path d="M28.5715601,15.0783542 C30.5045567,15.0783542 32.0715601,16.6453576 32.0715601,18.5783542 C32.0715601,20.5113508 30.5045567,22.0783542 28.5715601,22.0783542 C26.6385634,22.0783542 25.0715601,20.5113508 25.0715601,18.5783542 C25.0715601,16.6453576 26.6385634,15.0783542 28.5715601,15.0783542 Z M28.5715601,17.0783542 C27.7431329,17.0783542 27.0715601,17.7499271 27.0715601,18.5783542 C27.0715601,19.4067813 27.7431329,20.0783542 28.5715601,20.0783542 C29.3999872,20.0783542 30.0715601,19.4067813 30.0715601,18.5783542 C30.0715601,17.7499271 29.3999872,17.0783542 28.5715601,17.0783542 Z" id="形状结合" fill="#F1BB5A"></path>
                        <path d="M8.81706889,19.9032486 L8.81706889,22.334978 L8.60547738,22.334978 C8.49504315,22.334978 8.40551852,22.4245027 8.40551852,22.5349369 C8.40551852,22.6453711 8.49504315,22.7348957 8.60547738,22.7348957 L9.28065538,22.7348957 L9.28065538,22.7348957 L9.28065538,19.9032486 L8.81706889,19.9032486 Z" id="路径-11" fill="#60C6E3"></path>
                        <path d="M4.41175352,20.1581266 L4.42615526,22.4431348 L4.21456375,22.4431348 C4.10412952,22.4431348 4.01460488,22.5326595 4.01460488,22.6430937 C4.01460488,22.7535279 4.10412952,22.8430526 4.21456375,22.8430526 L4.88974174,22.8430526 L4.88974174,22.8430526 L4.87534001,20.1581266 L4.41175352,20.1581266 Z" id="路径-11" fill="#60C6E3" transform="translate(4.452173, 21.500590) scale(-1, 1) rotate(11.000000) translate(-4.452173, -21.500590) "></path>
                        <polygon id="路径-10" fill="#3E7AB0" points="8.67059259 19.7224446 8.67059259 20.0840526 9.37816705 20.0840526 9.37816705 19.7224446"></polygon>
                        <polygon id="路径-10备份" fill="#3E7AB0" points="3.59247072 20.0703381 3.65919129 20.4511722 4.3936731 20.3438419 4.32290284 19.9521182"></polygon>
                        <path d="M28.9400842,15.3871703 C30.0087959,11.4515208 30.2098339,8.39745123 29.5431984,6.22496154 C28.8765628,4.05247186 27.1045648,2.92756619 24.2272044,2.85024454 L24.2272044,1 C27.9493959,1.45741502 30.2308478,2.90754503 31.0715601,5.35039005 C31.9122723,7.79323507 31.6792194,11.3054952 30.3724012,15.8871703 L28.9400842,15.3871703 Z" id="路径-8" fill="#F1BB5A"></path>
                        <path d="M15.1276161,1.98342754 C11.8940321,1.36620769 9.16487319,1.97347128 6.94013933,3.80521831 C4.71540546,5.63696533 3.92457802,9.13925168 4.56765699,14.3120774 C3.51574363,14.4450502 2.80216641,14.7961204 2.42692531,15.3652878 C2.05168422,15.9344553 1.92380351,17.226892 2.04328318,19.242598 L3.07739705,19.2618075 C3.04681607,18.63693 3.07490082,17.8216173 3.16165128,16.8158693 C3.25057092,15.6491542 4.20392433,15.5366976 5.31612453,15.4239309 C6.40711331,15.4841808 7.35239928,15.7592011 7.21844343,17.5369012 C7.217257,17.5526461 7.18121328,18.2560416 7.11031226,19.6470877 L8.07031947,19.7991379 C8.39736855,18.0266393 8.45695201,16.694826 8.24906987,15.8036981 C8.04118773,14.9125702 7.24740899,14.4269336 5.86773366,14.3467883 C5.55462855,9.11595736 6.3074871,5.83570841 8.12630931,4.50604147 C9.94513152,3.17637454 12.2789005,2.84387555 15.1276161,3.50854452 L15.1276161,1.98342754 Z" id="路径-9" fill="#F1BB5A" transform="translate(8.563808, 10.774613) rotate(-9.000000) translate(-8.563808, -10.774613) "></path>
                    </g>
                </g>
                <path d="M33.0666667,50.1333333 L46.4,50.1333333 L46.4,58.552381 C46.4,62.244799 43.4152317,64 39.7333333,64 C36.051435,64 33.0666667,62.244799 33.0666667,58.552381 L33.0666667,50.1333333 Z" id="矩形" fill="url(#linearGradient-8)" mask="url(#mask-2)"></path>
                <path d="M24.4658407,28.9171665 C24.4658407,28.4091512 25.7983158,29.6216459 25.7983158,31.2321895 C25.7983158,32.3058853 25.6695723,32.9670376 25.4120854,33.2156465 C25.6695723,33.8469145 25.7983158,34.3883224 25.7983158,34.8398704 C25.7983158,35.5171924 24.7160399,38.4 22.0029603,38.4 C21.2940365,38.4 23.5360352,31.7951056 24.4658407,28.9171665 Z" id="路径-3备份" fill="url(#linearGradient-9)" mask="url(#mask-2)" transform="translate(23.832491, 33.600000) scale(-1, 1) translate(-23.832491, -33.600000) "></path>
                <path d="M56.1457596,28.9171665 C56.1457596,28.4091512 57.6,29.6216459 57.6,31.2321895 C57.6,32.3058853 57.4594916,32.9670376 57.1784749,33.2156465 C57.4594916,33.8469145 57.6,34.3883224 57.6,34.8398704 C57.6,35.5171924 56.641009,38.4 53.6800007,38.4 C52.9062935,38.4 55.130986,31.7951056 56.1457596,28.9171665 Z" id="路径-3" fill="url(#linearGradient-10)" mask="url(#mask-2)"></path>
                <path d="M42.2637454,7.6181907 C48.8976293,8.35322962 50.757475,12.5175431 53.4155577,13.1025747 C54.9708168,13.44488 56.5093719,13.4689796 58.031223,13.1748734 L58.0312106,13.1748088 C58.2855436,13.1256576 58.5315662,13.2919902 58.5807174,13.5463232 C58.5901872,13.5953246 58.5917755,13.6455234 58.5854224,13.6950254 C58.0257951,18.0555158 57.2032916,20.5730422 56.117912,21.2476048 C56.7083204,23.0107466 56.9312624,24.9896828 57.0083801,27.1580497 C57.2494277,33.9357347 49.1511794,42.6666667 40,42.6666667 C30.8488206,42.6666667 21.3333333,35.1874589 21.3333333,25.3619732 C21.3333333,20.7982882 22.7191886,17.5843355 24.4796355,14.7004672 C26.3663164,12.396659 29.0972491,10.8962333 32.6609245,10.1752034 C35.9740327,7.55381771 38.4110264,7.19130676 42.2637454,7.6181907 Z" id="路径" fill="#4E3C30" mask="url(#mask-2)"></path>
                <path d="M39.6717141,54.9333333 C46.87815,54.9333333 53.7509289,46.428011 54.2767614,36.4461216 C54.802594,26.4642322 54.2730664,16 39.6717141,16 C25.0703617,16 25.0666667,26.3909919 25.0666667,36.4461216 C25.9525543,46.6140554 32.4652781,54.9333333 39.6717141,54.9333333 Z" id="椭圆形" fill="url(#linearGradient-11)" mask="url(#mask-2)"></path>
                <path d="M55.9330908,24.226047 C49.6789834,29.2477628 40.5417658,28.8769271 28.5214379,23.1135399 C19.4983461,18.7872377 24.3766896,13.4563804 39.6231155,13.3337743 C42.9994258,13.3066233 48.8139429,14.5332813 57.0666667,17.0137485 L55.9330908,24.226047 Z" id="路径-2" fill="#4E3C30" mask="url(#mask-2)"></path>
            </g>
        </g>
    </g>
</svg>