<?xml version="1.0" encoding="UTF-8"?>
<svg width="8px" height="8px" viewBox="0 0 8 8" version="1.1" xmlns="http://www.w3.org/2000/svg" xmlns:xlink="http://www.w3.org/1999/xlink">
    <!-- Generator: Sketch 59.1 (86144) - https://sketch.com -->
    <title>女性</title>
    <desc>Created with Sketch.</desc>
    <g id="页面-1" stroke="none" stroke-width="1" fill="none" fill-rule="evenodd">
        <g id="医生-逾期" transform="translate(-53.000000, -471.000000)" fill="#F91E69" fill-rule="nonzero">
            <g id="女性" transform="translate(53.000000, 471.000000)">
                <path d="M7.11262,0.884908792 C5.98764077,-0.231234427 4.18811472,-0.295682812 2.98540225,0.737096249 C1.78268979,1.76987531 1.58352618,3.5506149 2.52862,4.8212272 L2.00662,5.34063019 L0.759953336,4.10016583 C0.586535924,3.9276112 0.305370747,3.9276112 0.131953336,4.10016583 C-0.0414640755,4.27272047 -0.0414640755,4.55248682 0.131953336,4.72504146 L1.37862,5.96550581 L0.895286664,6.44643449 C0.721869253,6.61898913 0.721869253,6.89875548 0.895286664,7.07131011 C1.06870408,7.24386475 1.34986925,7.24386475 1.52328666,7.07131011 L2.00662,6.59038143 L3.25328666,7.83084577 C3.42670408,8.00340041 3.70786925,8.0034004 3.88128666,7.83084577 C4.05470407,7.65829113 4.05470407,7.37852479 3.88128666,7.20597015 L2.63462,5.96550581 L3.15662,5.44610282 C4.43358536,6.38649468 6.22322865,6.18832194 7.26117161,4.99159312 C8.29911456,3.7948643 8.23434393,2.00429111 7.11262,0.884908792 L7.11262,0.884908792 Z M6.48462,4.53333333 C5.76037398,5.254235 4.62520174,5.36569888 3.77331277,4.79955973 C2.9214238,4.23342058 2.59007364,3.14735112 2.98189799,2.20553225 C3.37372233,1.26371339 4.37959607,0.728446599 5.38438161,0.927071889 C6.38916715,1.12569718 7.11302648,2.00289637 7.1132911,3.02222222 C7.11444717,3.58856815 6.88811008,4.13189277 6.48462,4.53134328 L6.48462,4.53333333 Z" id="形状"></path>
            </g>
        </g>
    </g>
</svg>